<svg width="32" height="44" viewBox="0 0 32 44" fill="none" xmlns="http://www.w3.org/2000/svg">
<g clip-path="url(#clip0_12_1826)">
<path d="M14.0978 44C11.6405 44 9.64187 42.0158 9.64187 39.5762V22.0752L3.59917 16.0761C3.573 16.0501 3.55647 16.0337 3.5 16.0569C3.44353 16.0802 3.44353 16.1034 3.44353 16.1404V29.662C3.44353 30.6055 2.67218 31.3713 1.72176 31.3713C0.77135 31.3713 0 30.6055 0 29.662V16.1404C0 14.7154 0.856749 13.4437 2.18182 12.8981C3.50689 12.3524 5.01928 12.6519 6.03444 13.6584L20.6873 28.2056C22.4477 29.9533 23.4174 32.2766 23.4174 34.7476C23.4174 39.8483 19.2369 43.9986 14.0992 43.9986L14.0978 44ZM13.0854 25.4939V39.5762C13.0854 40.13 13.5386 40.5813 14.0978 40.5813C17.3375 40.5813 19.9725 37.9653 19.9725 34.749C19.9725 33.1914 19.3609 31.7269 18.2521 30.6247L13.0854 25.4953V25.4939Z" fill="#EBE6C9"/>
<path d="M28.4614 31.37C27.5427 31.37 26.6432 31.0131 25.9656 30.3403L14.3843 18.8425C14.3719 18.8302 14.3595 18.8179 14.3471 18.8056L11.3127 15.793C9.55234 14.0454 8.58264 11.722 8.58264 9.25099V4.42243C8.58402 1.98421 10.5826 0 13.0399 0H13.5014C18.3857 0 22.3595 3.94518 22.3595 8.79426C22.3595 10.7593 21.6859 12.6902 20.4614 14.2341L17.8857 17.4818L28.4022 27.9226C28.4284 27.9485 28.4449 27.9649 28.5014 27.9417C28.5578 27.9184 28.5578 27.8952 28.5578 27.8583V14.3366C28.5578 13.3931 29.3292 12.6273 30.2796 12.6273C31.23 12.6273 32.0014 13.3931 32.0014 14.3366V27.8583C32.0014 29.2832 31.1446 30.5549 29.8196 31.1006C29.3802 31.2811 28.9187 31.37 28.4628 31.37H28.4614ZM13.0399 3.4187C12.4821 3.4187 12.0275 3.86996 12.0275 4.42379V9.25236C12.0275 10.8099 12.6391 12.2745 13.7479 13.3767L15.4311 15.0477L17.7534 12.12C18.5014 11.1764 18.9132 9.9949 18.9132 8.79426C18.9132 5.83093 16.4848 3.4187 13.4986 3.4187H13.0372H13.0399Z" fill="#EBE6C9"/>
</g>
<defs>
<clipPath id="clip0_12_1826">
<rect width="32" height="44" fill="white"/>
</clipPath>
</defs>
</svg>
