<svg width="32" height="44" viewBox="0 0 32 44" fill="none" xmlns="http://www.w3.org/2000/svg">
<g clip-path="url(#clip0_12_1837)">
<path d="M14.0978 44C11.6405 44 9.64187 42.0158 9.64187 39.5762V22.0752L3.59917 16.0761C3.573 16.0501 3.55647 16.0337 3.5 16.0569C3.44353 16.0802 3.44353 16.1034 3.44353 16.1404V29.662C3.44353 30.6055 2.67218 31.3713 1.72176 31.3713C0.77135 31.3713 0 30.6055 0 29.662V16.1404C0 14.7154 0.856749 13.4437 2.18182 12.8981C3.50689 12.3524 5.01928 12.6519 6.03444 13.6584L20.6873 28.2056C22.4477 29.9533 23.4174 32.2766 23.4174 34.7476C23.4174 39.8483 19.2369 43.9986 14.0992 43.9986L14.0978 44ZM13.0854 25.4939V39.5762C13.0854 40.13 13.5386 40.5813 14.0978 40.5813C17.3375 40.5813 19.9725 37.9653 19.9725 34.749C19.9725 33.1914 19.3609 31.7269 18.2521 30.6247L13.0854 25.4953V25.4939Z" fill="#516138"/>
<path d="M28.4616 31.37C27.5428 31.37 26.6434 31.0131 25.9657 30.3403L14.3844 18.8425C14.372 18.8302 14.3596 18.8179 14.3472 18.8056L11.3128 15.793C9.55246 14.0454 8.58276 11.722 8.58276 9.25099V4.42243C8.58414 1.98421 10.5828 0 13.0401 0H13.5015C18.3858 0 22.3596 3.94518 22.3596 8.79426C22.3596 10.7593 21.6861 12.6902 20.4616 14.2341L17.8858 17.4818L28.4023 27.9226C28.4285 27.9485 28.445 27.9649 28.5015 27.9417C28.558 27.9184 28.558 27.8952 28.558 27.8583V14.3366C28.558 13.3931 29.3293 12.6273 30.2797 12.6273C31.2301 12.6273 32.0015 13.3931 32.0015 14.3366V27.8583C32.0015 29.2832 31.1447 30.5549 29.8197 31.1006C29.3803 31.2811 28.9189 31.37 28.4629 31.37H28.4616ZM13.0401 3.4187C12.4822 3.4187 12.0277 3.86996 12.0277 4.42379V9.25236C12.0277 10.8099 12.6392 12.2745 13.7481 13.3767L15.4312 15.0477L17.7536 12.12C18.5015 11.1764 18.9133 9.9949 18.9133 8.79426C18.9133 5.83093 16.485 3.4187 13.4987 3.4187H13.0373H13.0401Z" fill="#516138"/>
</g>
<defs>
<clipPath id="clip0_12_1837">
<rect width="32" height="44" fill="white"/>
</clipPath>
</defs>
</svg>
