<svg width="277" height="154" viewBox="0 0 277 154" fill="none" xmlns="http://www.w3.org/2000/svg">
<g clip-path="url(#clip0_1_2733)">
<path d="M115.241 97.5144H104.852V141.877H115.241V97.5144Z" fill="#F7F2DF" stroke="#7D8E61" stroke-width="2.68351" stroke-miterlimit="10"/>
<path d="M172.148 97.5144H161.759V141.877H172.148V97.5144Z" fill="#F7F2DF" stroke="#7D8E61" stroke-width="2.68351" stroke-miterlimit="10"/>
<path d="M257.79 97.5144H247.401V141.877H257.79V97.5144Z" fill="#F7F2DF" stroke="#7D8E61" stroke-width="2.68351" stroke-miterlimit="10"/>
<path d="M30.5028 97.5144H20.114V141.877H30.5028V97.5144Z" fill="#F7F2DF" stroke="#7D8E61" stroke-width="2.68351" stroke-miterlimit="10"/>
<path d="M79.6536 97.5144H69.2649V141.877H79.6536V97.5144Z" fill="#F7F2DF" stroke="#7D8E61" stroke-width="2.68351" stroke-miterlimit="10"/>
<path d="M206.77 97.5144H196.382V141.877H206.77V97.5144Z" fill="#F7F2DF" stroke="#7D8E61" stroke-width="2.68351" stroke-miterlimit="10"/>
<path d="M183.501 87.3893H94.403L132.582 38.2036H145.362L183.501 87.3893Z" fill="#F7F2DF" stroke="#7D8E61" stroke-width="2.68351" stroke-linecap="round" stroke-linejoin="bevel"/>
<path d="M132.582 38.2036L94.4033 87.3893H30.5034L127.579 38.2036H132.582Z" fill="#F7F2DF" stroke="#7D8E61" stroke-width="2.68351" stroke-linecap="round" stroke-linejoin="bevel"/>
<path d="M145.362 38.2036L183.501 87.3893H247.401L150.366 38.2036H145.362Z" fill="#F7F2DF" stroke="#7D8E61" stroke-width="2.68351" stroke-linecap="round" stroke-linejoin="bevel"/>
<path d="M127.579 38.2036L30.5035 87.3893H10.9718L124.967 38.2036H127.579Z" fill="#F7F2DF" stroke="#7D8E61" stroke-width="2.68351" stroke-linecap="round" stroke-linejoin="bevel"/>
<path d="M150.466 38.2036L247.542 87.3893H267.074L153.079 38.2036H150.466Z" fill="#F7F2DF" stroke="#7D8E61" stroke-width="2.68351" stroke-linecap="round" stroke-linejoin="bevel"/>
<path d="M273.705 97.5143H4.32056L10.9718 87.3901H267.074L273.705 97.5143Z" fill="#F7F2DF" stroke="#7D8E61" stroke-width="2.68351" stroke-linecap="round" stroke-linejoin="round"/>
<path d="M152.857 31.4688H124.966V38.2049H152.857V31.4688Z" fill="#F7F2DF" stroke="#7D8E61" stroke-width="2.68351" stroke-linecap="round" stroke-linejoin="round"/>
<path d="M150.466 8.04987H141.504V0.994873H136.44V8.04987H127.478V13.0721H136.44V31.4669H141.504V13.0721H150.466V8.04987Z" fill="#F7F2DF" stroke="#7D8E61" stroke-width="2.68351" stroke-linecap="round" stroke-linejoin="round"/>
<path d="M166.943 92.4509H110.057V103.013H166.943V92.4509Z" fill="#F7F2DF" stroke="#7D8E61" stroke-width="2.68351" stroke-miterlimit="10"/>
<path d="M266.029 141.876H10.9718V147.157H266.029V141.876Z" fill="#F7F2DF" stroke="#7D8E61" stroke-width="2.68351" stroke-miterlimit="10"/>
<path d="M275.995 147.156H1.00452V152.438H275.995V147.156Z" fill="#F7F2DF" stroke="#7D8E61" stroke-width="2.68351" stroke-miterlimit="10"/>
</g>
<defs>
<clipPath id="clip0_1_2733">
<rect width="277" height="153.436" fill="white"/>
</clipPath>
</defs>
</svg>
