<svg width="40" height="40" viewBox="0 0 40 40" fill="none" xmlns="http://www.w3.org/2000/svg">
<path d="M31.6116 8.51203C31.0937 7.99409 30.2539 7.99409 29.736 8.51203L20.0618 18.1862L10.3876 8.51203C9.86966 7.99409 9.02992 7.99409 8.51199 8.51203C7.99405 9.02996 7.99405 9.8697 8.51199 10.3876L18.1862 20.0618L8.51202 29.7359C7.99408 30.254 7.99408 31.0936 8.51202 31.6116C9.02995 32.1295 9.86969 32.1295 10.3876 31.6116L20.0618 21.9374L29.736 31.6116C30.2539 32.1295 31.0937 32.1295 31.6116 31.6116C32.1295 31.0936 32.1295 30.254 31.6116 29.7361L21.9373 20.0618L31.6116 10.3876C32.1295 9.8697 32.1295 9.02996 31.6116 8.51203Z" fill="#0F0F0F"/>
</svg>
