<svg width="243" height="550" viewBox="0 0 243 550" fill="none" xmlns="http://www.w3.org/2000/svg">
<g clip-path="url(#clip0_1_2157)">
<path d="M70.8377 160.242C96.9587 170.567 127.875 163.553 146.515 142.365C155.042 132.669 161.007 120.618 163.18 107.862C165.2 96.0073 164.958 79.9857 152.688 73.6221C145.919 70.1118 139.333 74.3048 132.535 72.598C125.743 70.8944 128.152 61.6292 121.324 59.581C115.628 57.8709 109.348 63.4842 103.986 60.6985C98.5592 57.8774 96.8523 48.8569 93.2583 44.1905C86.3473 35.2152 72.551 30.2589 63.2729 38.938C58.8867 43.0408 56.9061 49.0663 55.7821 54.8051C54.304 62.3409 53.5472 70.0893 52.9417 77.7378C51.4314 96.8253 51.9144 116.199 54.9964 135.116C57.2475 148.951 64.9056 166.348 81.7678 164.751C84.6179 164.48 84.7274 160.104 81.7678 160.22C66.0811 160.822 61.2505 143.699 59.4664 131.278C57.3441 116.515 56.7966 101.505 57.489 86.6133C57.7949 80.0307 58.3521 73.4578 59.1508 66.9171C59.9591 60.2895 60.5098 52.4026 63.9396 46.4642C67.2759 40.6867 73.4269 38.2585 79.8453 40.1553C86.4858 42.1166 90.5113 47.981 93.4161 53.8551C97.6156 62.3409 102.179 67.7029 112.243 65.2393C115.354 64.476 117.93 62.956 120.609 65.1266C123.067 67.1168 122.513 70.0538 124.046 72.6688C126.226 76.3884 130.651 77.7668 134.738 77.8569C141.906 78.018 148.424 74.8523 154.166 81.0709C159.078 86.3911 159.448 94.2747 158.946 101.112C158.079 112.876 153.67 124.328 146.808 133.886C129.926 157.395 98.8844 165.955 71.8167 156.732C69.5559 155.965 68.7058 159.398 70.8377 160.242Z" fill="#516138"/>
<path d="M56.6341 69.9812C57.3039 65.4017 56.4279 61.2087 55.0721 56.8386C53.4522 51.6151 51.7229 46.4398 49.8905 41.2903C48.1257 36.3276 46.3319 31.3746 44.5123 26.4313C42.7507 21.6521 40.593 16.8827 39.2597 11.9618C38.8636 10.4965 37.801 6.74152 39.16 5.40826C39.2888 4.73196 39.4595 4.66111 39.672 5.1957C40.0134 5.74962 40.358 6.30353 40.6993 6.85744C41.498 8.14884 42.2967 9.44346 43.0889 10.7381C45.7522 15.0824 48.4445 19.4107 51.0563 23.7841C53.6036 28.0415 56.0801 32.418 57.5293 37.1907C58.2893 39.6994 58.7853 42.2919 58.8433 44.9198C58.9013 47.6861 57.9512 50.3075 58.0188 53.0224C58.0446 53.9821 59.3907 54.7421 60.0896 53.879C63.281 49.9501 62.5693 43.1872 61.6257 38.5369C60.4921 32.9462 57.9125 27.7194 55.1172 22.7889C51.9805 17.2594 48.657 11.833 45.4398 6.34862C43.6814 3.3504 40.6252 -2.69759 36.4709 1.35372C33.2118 4.52907 33.6756 9.75583 34.851 13.7137C36.6287 19.6973 39.2855 25.507 41.4722 31.3553C43.7813 37.5257 45.9648 43.7443 48.2931 49.9082C50.6505 56.1494 54.2026 62.8093 53.9998 69.627C53.9547 71.0987 56.4118 71.5012 56.6341 69.9812Z" fill="#516138"/>
<path d="M36.1437 3.77446C21.8096 23.2484 16.7438 48.0103 20.5632 71.7578C22.4601 83.5478 26.682 95.0416 33.1261 105.112C36.4947 110.374 40.4945 115.189 44.33 120.113C48.8805 125.951 52.2684 132.028 55.9784 138.369C57.1506 140.372 60.3002 139.042 59.7108 136.794C56.7126 125.356 46.5168 116.087 39.7861 106.764C32.7848 97.064 28.0089 86.0533 25.5742 74.3471C20.6695 50.7542 25.6902 25.4963 39.2289 5.58113C40.5396 3.64887 37.4802 1.95491 36.1437 3.77446Z" fill="#516138"/>
<path d="M57.2255 135.389C46.5111 120.23 33.0078 107.612 17.028 98.1314C9.20882 93.494 0.887199 89.6488 -7.76611 86.8341C-15.6175 84.2803 -24.5446 83.4655 -30.0193 90.8468C-35.552 98.3021 -33.8033 107.809 -31.9129 116.188C-29.2721 127.891 -26.538 139.578 -23.8489 151.272C-21.9328 159.603 -21.4498 171.219 -14.1973 176.926C-7.18324 182.449 3.17698 183.351 11.7305 182.497C23.7781 181.296 34.9272 176.61 46.1439 172.382C58.2463 167.818 70.1329 164.646 83.1789 165.39C85.1176 165.5 85.5202 162.453 83.6362 162.006C66.7547 157.977 50.002 166.211 34.5117 171.918C20.0455 177.248 -10.803 186.027 -16.0555 164.476C-18.3291 155.146 -20.3547 145.752 -22.5028 136.393C-24.6637 126.97 -27.5106 117.438 -28.8149 107.854C-29.4719 103.039 -29.3527 97.7772 -26.187 93.8096C-22.2516 88.8791 -16.2165 89.6907 -10.8191 91.3717C-2.83239 93.8579 4.91597 97.5131 12.2103 101.584C28.2287 110.53 42.5017 122.922 53.7023 137.45C55.261 139.475 58.7713 137.572 57.2255 135.389Z" fill="#516138"/>
<path d="M83.7152 165.635C90.3525 165.413 98.2909 164.337 104.725 166.305C111.958 168.517 112.4 177.325 114.425 183.431C116.238 188.899 118.451 195.256 122.811 199.256C124.537 200.841 126.621 201.926 128.943 202.274C132.46 202.802 136.469 201.127 139.371 203.739C142.929 206.943 145.709 209.913 150.61 206.843C155.045 204.067 159.618 199.678 160.754 194.4C163.154 183.231 152.887 172.958 144.494 167.322C139.107 163.703 132.962 161.107 126.579 159.886C120.544 158.733 113.234 158.363 107.311 160.189C105.611 160.714 105.849 163.461 107.743 163.387C113.034 163.181 117.958 162.63 123.214 163.741C128.499 164.859 133.584 166.44 138.372 168.978C146.507 173.293 160.088 183.853 156.226 194.615C155.276 197.263 153.183 199.275 151.064 201.04C149.782 202.106 148.514 203.362 146.794 203.456C145.097 203.549 144.604 202.734 143.49 201.565C139.677 197.562 136.463 197.952 131.265 197.846C124.731 197.71 122.051 190.664 120.048 185.453C118.126 180.452 117.34 175.013 115.156 170.124C109.759 158.035 94.4618 160.949 83.7152 161.612C81.1518 161.77 81.1067 165.722 83.7152 165.635Z" fill="#516138"/>
<path d="M132.548 165.044C137.727 169.968 146.296 163.589 150.696 160.355C156.963 155.753 162.312 149.644 165.899 142.733C169.664 135.481 171.522 127.281 171.02 119.111C170.778 115.169 170.044 111.234 168.727 107.508C167.648 104.458 166.244 99.6275 162.849 98.6066C161.957 98.3393 161.288 99.0575 161.194 99.8691C160.856 102.8 163.568 105.959 164.543 108.661C165.693 111.856 166.434 115.211 166.704 118.596C167.255 125.52 166.083 132.569 163.175 138.891C160.524 144.652 156.673 149.773 152.013 154.063C149.501 156.375 146.77 158.471 143.881 160.294C141.34 161.895 137.176 164.89 134.217 162.89C132.912 162.011 131.428 163.978 132.548 165.044Z" fill="#516138"/>
<path d="M141.315 169.089C174.096 185.958 211.176 166.336 224.638 134.141C231.723 117.195 232.016 98.0462 227.311 80.4304C225.678 74.3148 223.42 63.1528 216.409 60.7794C207.663 57.8166 209.53 69.1589 205.199 72.3471C201.524 75.0523 195.654 73.2134 191.577 72.798C187.809 72.418 183.654 72.55 180.479 74.8816C176.827 77.561 176.669 82.7266 171.359 83.0615C167.191 83.3224 163.929 81.7734 159.962 83.8538C157.314 85.2418 159.643 88.8808 162.248 87.7666C167.536 85.5091 173.455 89.9372 178.289 85.5187C180.563 83.4415 181.181 79.8057 183.973 78.2534C187.483 76.3018 192.378 77.7381 196.082 78.1632C200.81 78.7075 206.542 78.4531 209.836 74.4919C211.369 72.6499 211.711 70.4246 212.381 68.1992C212.497 67.8096 212.79 66.1059 213.144 65.9449C214.017 65.552 217.269 67.6485 217.794 68.1992C219.321 69.803 220.1 73.4228 220.834 75.5805C231.233 106.11 224.547 143.358 196.095 161.811C180.63 171.839 159.952 173.842 143.151 165.943C141.058 164.964 139.209 168.007 141.315 169.089Z" fill="#516138"/>
<path d="M211.656 104.887C211.785 99.7212 211.492 94.5749 210.813 89.4512C210.143 84.3951 209.248 79.1458 207.528 74.3281C207.254 73.5616 206.71 73.2009 205.927 73.1107C205.418 73.0495 205.119 73.2878 204.755 73.597C204.301 73.977 204.201 74.6694 204.327 75.2104C205.48 80.0797 206.803 84.8556 207.599 89.8119C208.397 94.7939 208.794 99.8435 208.913 104.887C208.951 106.655 211.611 106.655 211.656 104.887Z" fill="#516138"/>
<path d="M226.092 134.285C232.993 123.432 240.117 112.148 242.529 99.3082C243.505 94.1233 243.292 88.1365 238.706 84.6746C236.813 83.2447 234.591 82.7037 232.246 83.0354C230.733 83.2479 229.296 83.7632 227.818 84.1368C226.517 84.4652 225.393 84.4427 224.446 85.4571C223.963 85.9724 223.96 86.7453 224.446 87.2638C225.918 88.8386 228.114 88.0335 229.924 87.4667C232.452 86.6744 234.845 85.9595 237.077 87.866C241.45 91.5985 239.676 98.7189 238.365 103.459C235.422 114.109 229.499 123.603 223.715 132.901C222.788 134.408 225.148 135.773 226.092 134.285Z" fill="#516138"/>
<path d="M209.618 64.1923C211.467 58.4084 207.512 53.3233 202.398 50.9756C199.358 49.5812 196.034 49.0595 192.904 47.9291C188.682 46.4058 185.291 43.6298 182.248 40.3965C177.623 35.4886 173.842 29.7884 168.667 25.4086C163.141 20.7325 156.407 17.8438 149.428 16.1144C141.938 14.2594 134.183 13.6315 126.502 13.1613C119.839 12.7523 112.59 12.5204 106.774 16.3366C101.312 19.9178 98.7967 26.2362 96.9868 32.2295C94.6874 39.8458 92.0274 48.2189 94.0176 56.1638C94.4588 57.9318 97.4828 57.6194 97.2767 55.7226C96.4555 48.0837 98.1301 41.1855 100.526 33.9717C102.677 27.4922 105.698 20.6585 112.738 18.3977C118.564 16.5266 125.323 17.5604 131.301 18.0596C137.774 18.5974 144.266 19.3123 150.539 21.061C156.687 22.7743 162.494 25.5439 167.208 29.9108C171.292 33.6916 174.564 38.2227 178.316 42.3159C181.613 45.9163 185.33 49.1786 189.861 51.1109C195.146 53.362 208.636 54.3957 205.934 63.1746C205.197 65.5384 208.868 66.5335 209.618 64.1923Z" fill="#516138"/>
<path d="M149.539 16.9601C137.03 8.88006 121.308 6.92526 107.341 12.3098C100.939 14.7799 95.1036 18.5285 90.318 23.4622C88.0927 25.7551 85.6774 28.3669 84.7821 31.5068C84.3924 32.8723 84.3312 34.3118 84.1798 35.7159C83.9866 37.5001 83.3522 39.31 83.5003 41.0973C83.5583 41.8219 84.2669 42.2888 84.9399 41.9249C87.0654 40.772 87.2039 38.3953 87.468 36.1926C87.935 32.3023 89.1297 29.9482 91.8252 27.0948C96.4047 22.2449 102.124 18.3771 108.356 15.9876C121.312 11.0216 136.048 12.6866 147.832 19.8843C149.7 21.0243 151.361 18.1388 149.539 16.9601Z" fill="#516138"/>
<path d="M89.9713 29.3392C91.5171 28.0672 91.9197 26.0769 91.8746 24.1608C91.8263 22.0836 91.5783 19.7101 90.5961 17.8551C88.4996 13.8972 83.6432 13.9069 80.0266 15.5171C76.1009 17.2626 73.7725 21.272 69.8822 23.0304C67.7438 23.9965 65.4477 23.9579 63.5316 25.4812C62.0373 26.6695 61.0615 28.3248 60.4206 30.1025C59.667 32.1893 59.4254 34.4662 59.3997 36.6754C59.3675 39.4997 59.155 42.4722 59.506 45.2675C59.6026 46.0275 60.4142 46.4558 61.0325 45.8987C64.6007 42.675 62.5847 36.6464 63.6507 32.4212C64.108 30.6049 64.9678 28.679 66.7712 27.8514C67.8147 27.3715 69.0191 27.3007 70.1044 26.9529C71.2348 26.5954 72.3201 26.0705 73.2991 25.4006C76.8287 22.9821 79.492 18.438 84.0489 17.8745C86.3934 17.5846 87.7653 18.876 88.4254 21.0627C88.9987 22.9531 89.923 26.0769 88.3063 27.6678C87.1953 28.7563 88.8184 30.286 89.9713 29.3392Z" fill="#516138"/>
<path d="M107.241 17.4303C104.555 26.747 101.96 38.231 109.605 46.0374C112.826 49.3254 116.484 49.5831 120.725 50.5621C126.741 51.9501 125.037 58.9932 127.968 63.1765C133.121 70.532 143.358 68.7092 151 69.4145C157.306 69.9974 160.356 73.0794 163.257 78.3287C164.996 81.4782 167.087 85.565 170.912 86.4055C172.252 86.7018 173.608 84.9241 172.371 83.8968C170.719 82.5217 169.244 81.4106 168.043 79.5814C166.916 77.8649 166.059 75.9842 165.006 74.2226C163.145 71.1117 160.813 68.5933 157.387 67.2246C149.587 64.1137 138.341 68.4773 131.816 62.2845C128.667 59.2959 129.546 54.5264 127.404 50.9936C124.957 46.9552 120.535 47.5477 116.574 46.398C104.456 42.8781 107.908 27.0078 110.381 18.2901C110.954 16.2773 107.821 15.4175 107.241 17.4303Z" fill="#516138"/>
<path d="M124.321 18.5305C128.459 18.8944 132.858 19.2873 136.62 21.2099C140.955 23.4256 142.5 27.4157 144.565 31.5024C147.872 38.0528 153.408 43.3955 160.084 46.4517C167.916 50.036 176.946 49.6431 184.659 53.5624C191.103 56.8376 204.996 68.8047 194.729 75.1265C193.589 75.8285 194.034 77.6964 195.422 77.6835C198.781 77.6577 201.067 74.5242 201.631 71.423C202.388 67.2718 200.117 63.2463 197.663 60.0934C190.784 51.2501 181.497 48.7092 170.988 46.6288C159.082 44.2715 151.141 38.3169 145.753 27.4672C141.338 18.5756 133.631 16.6562 124.318 15.9123C122.637 15.7771 122.656 18.3824 124.321 18.5305Z" fill="#516138"/>
<path d="M124.5 16.0412C120.678 19.4484 116.703 23.2646 116.108 28.6299C115.689 32.4139 117.222 36.2075 120.565 38.2074C128.059 42.6903 140.705 35.6665 142.683 47.4887C143.42 51.9039 143.401 56.4286 146.489 60.0065C149.249 63.2012 153.272 64.5957 157.358 65.0369C163.265 65.6745 169.055 64.2672 174.951 64.557C180.739 64.8404 188.113 67.99 187.698 74.8978C187.566 77.1167 190.993 77.0974 191.144 74.8978C191.804 65.3879 181.579 61.2818 173.634 61.459C167.902 61.5878 161.999 63.1787 156.354 61.591C150.75 60.013 148.19 56.7764 147.356 51.1053C146.782 47.2182 146.686 42.9543 143.981 39.8176C141.491 36.9289 137.813 36.1141 134.158 35.937C130.4 35.7534 124.774 36.9386 121.753 34.0724C116.491 29.0807 123.312 21.8541 126.845 18.3889C128.384 16.8785 126.085 14.6274 124.5 16.0412Z" fill="#516138"/>
<path d="M190.123 68.9784C189.598 64.3668 187.524 60.045 183.785 57.1949C180.365 54.5896 176.22 53.4238 172.018 52.857C167.541 52.2515 163.023 52.2483 158.524 51.8973C153.903 51.5366 149.549 51.1372 145.777 48.1519C144.515 47.1503 142.699 48.8862 143.971 49.9586C145.446 51.2016 147.027 52.2225 148.798 52.9954C150.573 53.7716 152.56 54.6829 154.447 55.0919C158.501 55.9679 162.727 55.9969 166.849 56.2448C170.91 56.4928 175.18 56.8664 178.896 58.6698C183.228 60.7696 186.22 64.6631 187.112 69.3842C187.43 71.0621 190.319 70.7014 190.123 68.9784Z" fill="#516138"/>
<path d="M120.989 27.3603C125.92 27.3184 130.776 28.9576 134.844 31.7175C136.847 33.0765 138.653 34.7608 140.154 36.6609C140.898 37.6012 141.555 38.6125 142.138 39.6591C142.743 40.7444 143.081 42.1131 143.796 43.1082C144.579 44.1999 146.708 43.9777 146.592 42.3514C146.495 40.9666 145.706 39.5689 145.052 38.358C144.379 37.1117 143.587 35.9427 142.717 34.8285C141.017 32.6482 138.988 30.7739 136.718 29.1991C132.119 26.0109 126.58 24.3975 120.986 24.7453C119.321 24.8451 119.289 27.3764 120.989 27.3603Z" fill="#516138"/>
<path d="M78.1014 160.614C33.8913 185.653 10.3178 236.89 -3.91333 283.551C-12.5634 311.913 -13.6359 341.751 -22.0122 370.158C-30.395 398.588 -43.5022 425.292 -53.405 453.178C-64.0743 483.221 -70.9756 515.393 -64.4768 547.144C-64.1773 548.602 -62.4351 549.469 -61.0664 549.079C-57.5883 548.09 -54.1103 547.098 -50.629 546.11C-49.4503 545.775 -48.5905 544.657 -48.5905 543.43C-48.481 489.752 -26.3083 439.906 -10.6956 389.497C-2.60267 363.363 1.96715 337.078 6.0893 310.094C10.2082 283.136 17.4864 258.084 31.3632 234.452C46.2803 209.049 65.7608 186.516 85.1768 164.495C87.5824 161.764 83.6084 157.742 81.1609 160.479C63.6642 180.02 46.1805 199.633 31.8303 221.67C17.0871 244.313 7.02971 268.708 2.12499 295.302C-2.96008 322.856 -5.76189 350.436 -13.3718 377.507C-20.724 403.667 -30.2404 429.137 -38.2883 455.078C-47.1928 483.765 -54.1264 513.239 -54.1457 543.43C-53.4662 542.538 -52.7867 541.643 -52.1072 540.751C-55.5853 541.746 -59.0633 542.738 -62.5414 543.733C-61.4046 544.377 -60.2678 545.025 -59.131 545.669C-70.9886 488.084 -37.934 434.899 -20.2828 382.344C-15.8161 369.047 -12.4443 355.528 -10.1771 341.683C-7.81651 327.288 -6.09361 312.809 -2.65741 298.61C3.55481 272.936 13.4029 247.582 25.9497 224.34C38.9377 200.277 56.2057 177.985 80.0047 163.867C82.0851 162.627 80.2172 159.416 78.1014 160.614Z" fill="#516138"/>
<path d="M100.836 46.2172C100.395 48.1623 100.08 50.13 99.8992 52.117C99.8122 53.0896 99.7575 54.0621 99.735 55.0379C99.7124 56.0041 99.5836 57.1377 99.8959 58.0652C100.012 58.4033 100.543 58.4548 100.633 58.0652C100.849 57.1699 100.695 56.178 100.704 55.2634C100.714 54.2876 100.759 53.315 100.836 52.3424C100.994 50.3651 101.297 48.4039 101.725 46.4652C101.857 45.8823 100.968 45.6343 100.836 46.2172Z" fill="#516138"/>
<path d="M104.875 46.5355C104.234 50.3002 103.793 54.1164 103.686 57.9358C103.619 60.4156 103.197 64.834 105.747 66.3573C106.253 66.66 106.858 66.0546 106.556 65.5489C106.201 64.9564 105.763 64.454 105.515 63.797C105.267 63.1368 105.148 62.4219 105.087 61.7231C104.955 60.2224 105.036 58.6991 105.081 57.1952C105.181 53.7267 105.474 50.2744 105.982 46.8414C106.092 46.1233 105 45.8012 104.875 46.5355Z" fill="#516138"/>
<path d="M108.5 50.608C107.231 55.3388 106.774 60.5753 107.885 65.3802C108.075 66.2014 109.502 66.0436 109.389 65.1773C109.086 62.8231 108.819 60.4658 108.858 58.0891C108.896 55.6834 109.205 53.3003 109.759 50.959C109.956 50.1378 108.719 49.7932 108.5 50.608Z" fill="#516138"/>
<path d="M110.26 52.4979C110.047 54.5107 109.966 56.5363 110.034 58.5587C110.066 59.5313 110.134 60.5007 110.231 61.47C110.285 61.9885 110.346 62.5038 110.417 63.0191C110.488 63.5375 110.517 64.0367 110.842 64.4682C111.174 64.9062 111.863 64.8901 112.037 64.3105C112.304 63.4313 111.908 62.3621 111.789 61.47C111.657 60.4652 111.564 59.4573 111.503 58.446C111.383 56.4623 111.409 54.4752 111.564 52.4979C111.635 51.6509 110.35 51.6735 110.26 52.4979Z" fill="#516138"/>
<path d="M113.538 54.5463C113.529 55.535 113.519 56.5204 113.509 57.5091C113.506 58.0018 113.5 58.4978 113.496 58.9905C113.49 59.5154 113.577 60.0049 113.674 60.5234C113.783 61.116 114.762 61.116 114.875 60.5234C114.971 60.0082 115.058 59.5154 115.052 58.9905C115.049 58.4978 115.042 58.0018 115.036 57.5091C115.026 56.5204 115.016 55.535 115.007 54.5463C114.997 53.6027 113.548 53.5995 113.538 54.5463Z" fill="#516138"/>
<path d="M126.756 60.4531C126.267 61.6254 125.777 62.8008 125.288 63.9731C125.043 64.5592 124.798 65.1453 124.553 65.7314C124.431 66.0245 124.309 66.3143 124.215 66.6203C124.119 66.9327 124.096 67.2547 124.064 67.5768C124.012 68.0598 124.737 68.3529 125.046 67.9825C125.252 67.7346 125.465 67.4963 125.619 67.2096C125.771 66.9295 125.893 66.6396 126.019 66.3465C126.267 65.7604 126.515 65.1775 126.763 64.5914C127.258 63.4224 127.754 62.2502 128.25 61.0811C128.44 60.6367 128.353 60.1343 127.861 59.925C127.365 59.7189 126.946 60.0055 126.756 60.4531Z" fill="#516138"/>
<path d="M130.619 65.2786C130.445 66.0322 130.272 66.789 130.094 67.5425C130.008 67.9129 129.924 68.2833 129.837 68.6536C129.795 68.8372 129.743 69.0239 129.708 69.2075C129.663 69.449 129.682 69.6873 129.692 69.9321C129.702 70.2155 129.892 70.5118 130.185 70.5794C130.465 70.6438 130.8 70.5408 130.941 70.2703C131.048 70.0674 131.183 69.8516 131.247 69.6294C131.299 69.4619 131.325 69.2848 131.363 69.1141C131.45 68.7277 131.534 68.3444 131.621 67.958C131.788 67.2012 131.959 66.4444 132.126 65.6908C132.217 65.2915 132.007 64.8245 131.579 64.7279C131.183 64.6409 130.719 64.8503 130.619 65.2786Z" fill="#516138"/>
<path d="M135.068 69.4992C134.894 69.905 134.72 70.3108 134.546 70.7165C134.44 70.9677 134.314 71.2189 134.24 71.483C134.182 71.6955 134.124 71.9049 134.069 72.1174C133.976 72.4556 134.156 72.8098 134.475 72.9451C134.797 73.0803 135.171 72.9612 135.351 72.6584C135.464 72.4717 135.577 72.2817 135.689 72.0949C135.799 71.9113 135.873 71.7116 135.957 71.5184C136.127 71.1191 136.298 70.7197 136.469 70.3204C136.559 70.1111 136.614 69.9243 136.549 69.6924C136.498 69.5024 136.353 69.2995 136.176 69.2061C135.986 69.1063 135.757 69.0548 135.548 69.1256C135.367 69.1868 135.148 69.3124 135.068 69.4992Z" fill="#516138"/>
<path d="M129.131 49.0531C129.479 52.1801 129.824 55.3812 131.376 58.1766C132.603 60.3826 134.741 62.6948 137.356 63.0748C138.351 63.2198 138.718 61.9412 137.772 61.5677C135.52 60.6756 133.804 59.2361 132.628 57.1042C131.247 54.5955 130.68 51.7003 130.133 48.9178C130.023 48.3607 129.067 48.4766 129.131 49.0531Z" fill="#516138"/>
<path d="M133.012 50.8783C133.707 52.3049 134.587 53.6318 135.611 54.8459C136.612 56.0342 137.791 57.2322 139.14 58.018C139.517 58.237 140.013 58.1404 140.274 57.7926C140.515 57.4673 140.544 56.9263 140.206 56.6397C139.069 55.68 137.907 54.7847 136.896 53.6447C135.93 52.5529 135.118 51.3388 134.448 50.0442C134.242 49.6449 133.685 49.5289 133.311 49.7479C132.899 49.983 132.815 50.4725 133.012 50.8783Z" fill="#516138"/>
<path d="M137.951 49.5829C138.479 51.1544 139.554 52.5006 140.981 53.3444C141.261 53.5118 141.677 53.4184 141.831 53.1221C141.989 52.8226 141.908 52.4491 141.609 52.272C141.458 52.1818 141.313 52.0884 141.168 51.9885C141.126 51.9596 141.084 51.9273 141.042 51.8951C140.949 51.8275 141.078 51.9274 141.023 51.8791C140.955 51.8243 140.888 51.7696 140.82 51.7116C140.549 51.4765 140.298 51.2189 140.073 50.9419C140.063 50.929 139.973 50.8163 140.024 50.8807C140.073 50.9451 139.979 50.8195 139.979 50.8195C139.928 50.7487 139.876 50.6778 139.828 50.607C139.732 50.462 139.638 50.3139 139.554 50.1593C139.464 49.9983 139.384 49.8341 139.306 49.6666C139.297 49.6408 139.248 49.5249 139.297 49.6473C139.281 49.6054 139.264 49.5668 139.248 49.5249C139.213 49.4347 139.181 49.3446 139.152 49.2544C139.049 48.9452 138.717 48.7133 138.385 48.8196C138.079 48.9162 137.838 49.2512 137.951 49.5829Z" fill="#516138"/>
<path d="M111.272 25.664C110.521 28.3273 110.309 31.1258 110.663 33.8696C110.834 35.2061 111.101 36.5297 111.568 37.7986C112.048 39.1093 112.566 40.5166 113.632 41.4634C114.183 41.9529 115.023 41.4795 114.859 40.7485C114.585 39.528 113.932 38.4395 113.523 37.2576C113.111 36.0692 112.766 34.8519 112.547 33.612C112.109 31.1162 112.206 28.5366 112.782 26.0762C113.011 25.1004 111.545 24.6914 111.272 25.664Z" fill="#516138"/>
<path d="M122.14 27.1854C122.266 28.6088 122.475 30.0258 122.787 31.4235C123.1 32.8308 123.502 34.1866 124.201 35.4522C124.636 36.2413 125.84 35.7002 125.631 34.85C125.312 33.5586 124.871 32.3059 124.523 31.0209C124.182 29.7617 123.911 28.48 123.741 27.1854C123.683 26.7571 123.415 26.3867 122.942 26.3867C122.536 26.3867 122.101 26.7539 122.14 27.1854Z" fill="#516138"/>
<path d="M126.266 27.8842C126.153 29.3945 126.102 30.9082 126.114 32.425C126.121 33.1818 126.144 33.9386 126.182 34.6922C126.221 35.4425 126.276 36.238 126.533 36.9497C126.72 37.4714 127.67 37.6356 127.763 36.9497C127.966 35.4651 127.676 33.916 127.622 32.4218C127.564 30.9082 127.573 29.3945 127.641 27.8809C127.68 26.9953 126.333 27.0114 126.266 27.8842Z" fill="#516138"/>
<path d="M131.241 32.4463C131.07 33.0872 130.896 33.7248 130.722 34.3625C130.639 34.6749 130.555 34.9905 130.468 35.3029C130.368 35.6668 130.352 36.0532 130.31 36.43C130.278 36.7263 130.555 37.058 130.838 37.1224C131.122 37.1868 131.521 37.087 131.65 36.7939C131.792 36.4622 131.969 36.1305 132.059 35.7827C132.143 35.4574 132.226 35.129 132.313 34.8037C132.478 34.1628 132.645 33.522 132.809 32.8811C132.916 32.4689 132.674 31.9794 132.242 31.8795C131.814 31.7829 131.36 32.0083 131.241 32.4463Z" fill="#516138"/>
<path d="M132.674 23.0099C132.285 23.7152 131.959 24.4656 131.711 25.2352C131.457 26.0243 131.209 26.8873 131.422 27.7118C131.557 28.2335 132.327 28.3462 132.587 27.8631C132.951 27.1901 133.035 26.4204 133.261 25.699C133.367 25.3576 133.486 25.0195 133.624 24.691C133.56 24.8456 133.679 24.5686 133.692 24.5429C133.721 24.4752 133.753 24.4076 133.785 24.34C133.869 24.1628 133.959 23.9857 134.056 23.8118C134.252 23.4447 134.159 22.9262 133.769 22.7201C133.389 22.5236 132.887 22.617 132.674 23.0099Z" fill="#516138"/>
<path d="M137.281 24.4681C136.91 25.0478 136.543 25.6275 136.173 26.2072C135.993 26.4938 135.809 26.7772 135.629 27.0606C135.539 27.2023 135.458 27.3504 135.384 27.5018C135.275 27.7272 135.275 27.9365 135.275 28.1781C135.278 28.5484 135.661 28.7288 135.97 28.5774C136.195 28.4679 136.363 28.3713 136.521 28.1652C136.617 28.0396 136.711 27.914 136.795 27.7787C136.975 27.4824 137.158 27.1829 137.339 26.8867C137.696 26.3005 138.054 25.7144 138.411 25.1283C138.588 24.8353 138.485 24.3973 138.176 24.233C137.851 24.0624 137.477 24.159 137.281 24.4681Z" fill="#516138"/>
<path d="M139.188 27.8114C139.072 28.0433 138.953 28.2719 138.834 28.5038C138.75 28.6648 138.67 28.8258 138.622 29.003C138.589 29.1286 138.554 29.2574 138.522 29.383C138.451 29.6535 138.567 29.9852 138.821 30.1205C138.924 30.1752 139.034 30.2042 139.153 30.2106C139.301 30.2171 139.52 30.1366 139.617 30.0174C139.697 29.9176 139.781 29.8177 139.861 29.7211C139.936 29.6309 140.016 29.544 140.071 29.4409C140.1 29.3862 140.129 29.3282 140.158 29.2735C140.277 29.0416 140.393 28.813 140.512 28.5811C140.605 28.3975 140.644 28.1946 140.589 27.9918C140.541 27.8146 140.402 27.6214 140.238 27.5344C140.061 27.441 139.845 27.3928 139.649 27.4572C139.462 27.5184 139.279 27.6343 139.188 27.8114Z" fill="#516138"/>
<path d="M155.2 27.7724C153.86 29.9751 152.929 32.4839 152.762 35.0666C152.701 36.0038 154.263 36.2389 154.424 35.2921C154.82 32.9476 155.464 30.6933 156.662 28.629C157.209 27.679 155.766 26.8417 155.2 27.7724Z" fill="#516138"/>
<path d="M157.648 31.1049C157.262 32.1966 156.879 33.2883 156.492 34.38C156.309 34.9018 156.09 35.4267 155.954 35.9613C155.88 36.2511 155.8 36.5442 155.742 36.834C155.681 37.14 155.69 37.4491 155.687 37.7583C155.681 38.3025 156.357 38.4024 156.64 38.0159C156.818 37.7744 156.995 37.549 157.117 37.2752C157.236 37.0047 157.349 36.731 157.465 36.4605C157.69 35.9259 157.835 35.3494 158.006 34.7955C158.347 33.6909 158.689 32.5895 159.033 31.4849C159.149 31.1145 158.898 30.7023 158.531 30.6025C158.135 30.493 157.777 30.7377 157.648 31.1049Z" fill="#516138"/>
<path d="M161.832 32.6525C161.323 33.7957 160.882 34.9647 160.524 36.1659C160.17 37.3575 159.806 38.607 159.813 39.8533C159.819 40.5973 160.885 40.7357 161.098 40.0273C161.439 38.8872 161.571 37.6924 161.871 36.5363C162.17 35.3834 162.55 34.2498 162.995 33.1452C163.268 32.4818 162.128 31.9923 161.832 32.6525Z" fill="#516138"/>
<path d="M165.219 34.1925C164.89 35.4259 164.562 36.6593 164.233 37.8928C164.076 38.4885 163.918 39.0811 163.757 39.6737C163.576 40.3532 163.345 40.994 163.557 41.6896C163.683 42.1051 164.204 42.25 164.517 41.9441C165.035 41.4352 165.142 40.7815 165.309 40.102C165.457 39.5062 165.602 38.9072 165.75 38.3114C166.056 37.0715 166.362 35.8317 166.665 34.5918C166.897 33.6547 165.47 33.2585 165.219 34.1925Z" fill="#516138"/>
<path d="M167.859 37.5822C167.627 38.207 167.392 38.8317 167.16 39.4597C167.048 39.7592 166.935 40.0619 166.822 40.3614C166.703 40.6835 166.658 41.0345 166.59 41.3694C166.526 41.6915 166.655 42.0103 166.97 42.1423C167.26 42.2647 167.63 42.1617 167.788 41.875C167.972 41.5369 168.172 41.2084 168.304 40.8477C168.416 40.5353 168.523 40.2197 168.632 39.9041C168.858 39.2633 169.08 38.6224 169.305 37.9815C169.434 37.6112 169.157 37.1442 168.78 37.0605C168.358 36.9606 168.007 37.1893 167.859 37.5822Z" fill="#516138"/>
<path d="M161.536 56.736C161.295 57.1933 161.027 57.6378 160.731 58.0629C160.66 58.1659 160.586 58.269 160.509 58.3688C160.415 58.4944 160.428 58.4203 160.515 58.3624C160.473 58.3881 160.428 58.4719 160.396 58.5105C160.229 58.7166 160.055 58.9163 159.874 59.1127C159.533 59.4831 159.166 59.8309 158.779 60.1562C158.709 60.2173 158.525 60.3107 158.486 60.3945C158.589 60.3139 158.612 60.2978 158.551 60.3462C158.522 60.3687 158.49 60.3913 158.461 60.4138C158.409 60.4524 158.358 60.4879 158.309 60.5265C158.094 60.6811 157.875 60.8292 157.649 60.9709C157.224 61.2382 157.076 61.6859 157.166 62.1593C157.221 62.4459 157.433 62.6262 157.649 62.7905C157.936 63.0062 158.422 62.9708 158.712 62.7905C160.667 61.5764 162.306 59.8534 163.385 57.8181C163.646 57.3254 163.526 56.633 163.001 56.356C162.506 56.092 161.813 56.2079 161.536 56.736Z" fill="#516138"/>
<path d="M164.949 56.9071C164.427 58.0407 163.789 59.1131 163.039 60.1082C163.026 60.1243 162.923 60.2596 162.958 60.2145C162.997 60.1662 162.846 60.3562 162.846 60.3562C162.749 60.4753 162.652 60.5945 162.553 60.7104C162.353 60.9423 162.15 61.171 161.937 61.3932C161.725 61.6154 161.519 61.8408 161.309 62.0663C161.168 62.2144 161.007 62.3593 160.904 62.5364C160.897 62.5493 160.743 62.91 160.826 62.72C160.788 62.8102 160.749 62.9003 160.707 62.9905C160.569 63.3029 160.546 63.6282 160.772 63.9116C160.965 64.1563 161.329 64.3205 161.644 64.2078C161.786 64.1563 161.931 64.108 162.069 64.05C162.324 63.947 162.517 63.8021 162.714 63.6121C162.949 63.3834 163.171 63.1547 163.38 62.9036C163.834 62.3496 164.266 61.7732 164.659 61.1742C165.399 60.0406 165.995 58.8168 166.468 57.548C166.791 56.6753 165.341 56.0537 164.949 56.9071Z" fill="#516138"/>
<path d="M168.4 58.0927C167.743 58.9397 167.082 59.7866 166.425 60.6336C166.097 61.0587 165.769 61.4806 165.437 61.9057C165.079 62.3662 164.706 62.801 164.448 63.3259C164.268 63.693 164.323 64.1181 164.658 64.3758C164.983 64.6269 165.427 64.5915 165.727 64.3114C166.155 63.9088 166.464 63.4354 166.799 62.9555C167.108 62.5176 167.417 62.0764 167.727 61.6384C168.345 60.7592 168.96 59.88 169.578 59.0008C169.791 58.6981 169.662 58.2408 169.385 58.0347C169.115 57.835 168.632 57.7932 168.4 58.0927Z" fill="#516138"/>
<path d="M173.46 59.0434C172.197 60.4024 170.935 61.7582 169.669 63.1172C169.334 63.4779 169.286 64.0962 169.669 64.4473C170.033 64.779 170.645 64.8337 170.999 64.4473C172.255 63.0818 173.511 61.7163 174.767 60.3509C175.096 59.9934 175.147 59.388 174.767 59.0434C174.41 58.7149 173.814 58.6634 173.46 59.0434Z" fill="#516138"/>
<path d="M169.665 69.6517C169.417 70.8691 169.166 72.0832 168.918 73.3005C168.664 74.55 168.332 75.8028 168.361 77.0845C168.371 77.4581 168.619 77.7995 168.983 77.8993C169.314 77.9895 169.788 77.8478 169.939 77.5096C170.458 76.3342 170.654 75.0975 170.896 73.8415C171.131 72.621 171.369 71.4037 171.604 70.1831C171.707 69.6517 171.453 69.0978 170.902 68.9465C170.406 68.8112 169.775 69.1171 169.665 69.6517Z" fill="#516138"/>
<path d="M173.713 71.4522C173.285 72.4795 172.86 73.51 172.432 74.5406C172.219 75.0558 172.003 75.5711 171.791 76.0832C171.585 76.5791 171.327 77.1202 171.221 77.6451C171.134 78.0798 171.282 78.4824 171.659 78.7207C171.81 78.8173 171.968 78.8302 172.142 78.8495C172.464 78.8914 172.812 78.637 172.966 78.3761C173.259 77.8802 173.449 77.2651 173.642 76.7208C173.836 76.1798 174.026 75.6355 174.216 75.0945C174.592 74.0285 174.969 72.9658 175.343 71.8998C175.494 71.4683 175.169 70.9756 174.75 70.8596C174.267 70.7276 173.89 71.0271 173.713 71.4522Z" fill="#516138"/>
<path d="M177.486 72.0327C177.129 73.395 176.771 74.7572 176.414 76.1227C176.262 76.6959 176.604 77.3787 177.206 77.5171C177.789 77.6492 178.452 77.3432 178.6 76.7249C178.926 75.353 179.254 73.9811 179.579 72.6092C179.711 72.0585 179.405 71.408 178.823 71.2727C178.253 71.1439 177.641 71.4434 177.486 72.0327Z" fill="#516138"/>
<path d="M72.8153 67.4375C69.5659 76.2068 67.6304 85.2787 67.0604 94.618C66.4743 104.286 67.0024 113.924 66.1393 123.592C66.0427 124.694 67.7882 124.9 68.0522 123.85C70.3194 114.839 69.1086 105.245 69.4049 96.0511C69.714 86.4896 71.4241 76.9635 74.3225 67.8497C74.6349 66.8804 73.1599 66.5068 72.8153 67.4375Z" fill="#516138"/>
<path d="M74.993 90.8627C73.7725 99.0973 72.684 107.409 72.3555 115.737C72.304 117.045 74.2523 117.006 74.365 115.737C75.1154 107.516 75.7112 99.2938 76.7482 91.101C76.8738 90.1091 75.1379 89.8643 74.993 90.8627Z" fill="#516138"/>
<path d="M81.9297 95.5519C80.9185 105.142 79.1537 114.543 77.5242 124.033C77.3213 125.206 79.0668 125.734 79.3405 124.533C81.5079 115.061 82.6093 105.213 83.4949 95.5487C83.5851 94.5439 82.0328 94.5632 81.9297 95.5519Z" fill="#516138"/>
<path d="M93.4409 98.4518C91.7244 105.021 89.6859 111.501 87.2995 117.858C84.9132 124.215 81.9568 130.321 79.4352 136.617C79.0455 137.587 80.5946 138.192 81.097 137.319C84.4463 131.497 86.8519 125.043 89.0836 118.721C91.3862 112.209 93.3346 105.582 94.9481 98.8672C95.1864 97.8882 93.6985 97.476 93.4409 98.4518Z" fill="#516138"/>
<path d="M109.253 93.8407C106.287 100.855 102.953 107.701 99.2273 114.345C97.3916 117.614 95.4691 120.834 93.4595 123.997C91.421 127.208 88.8414 130.335 87.1797 133.752C86.6966 134.75 87.9365 135.867 88.7835 134.988C91.3051 132.376 93.1858 128.866 95.0665 125.778C97.1437 122.371 99.1211 118.902 100.995 115.379C104.612 108.587 107.839 101.596 110.705 94.4558C111.046 93.625 109.607 93.0099 109.253 93.8407Z" fill="#516138"/>
<path d="M106.845 107.621C106.089 109.556 105.193 111.434 104.182 113.247C103.67 114.168 103.126 115.07 102.549 115.955C102.005 116.793 100.991 117.791 101.12 118.847C101.197 119.459 101.638 119.852 102.272 119.723C103.393 119.498 103.999 118.142 104.559 117.244C105.151 116.294 105.712 115.324 106.237 114.336C107.287 112.358 108.192 110.307 108.968 108.207C109.174 107.65 108.736 106.999 108.198 106.851C107.573 106.681 107.061 107.067 106.845 107.621Z" fill="#516138"/>
<path d="M110.712 110.122C110.004 111.678 109.25 113.217 108.429 114.715C108.023 115.452 107.605 116.183 107.173 116.904C106.706 117.687 106.188 118.434 105.843 119.281C105.441 120.279 106.98 121.143 107.656 120.337C108.262 119.619 108.664 118.766 109.099 117.935C109.489 117.188 109.862 116.431 110.233 115.674C111.006 114.083 111.73 112.473 112.403 110.837C112.799 109.874 111.147 109.169 110.712 110.122Z" fill="#516138"/>
<path d="M138.861 94.466C130.846 107.499 121.835 119.975 111.8 131.53C106.892 137.182 101.785 142.66 96.429 147.893C93.7013 150.559 90.9124 153.168 88.0687 155.712C85.3185 158.173 81.8307 160.437 79.5314 163.312C78.8454 164.169 79.6795 165.409 80.7294 164.868C83.9434 163.209 86.7774 160.121 89.4665 157.731C92.4293 155.097 95.3276 152.398 98.1681 149.632C103.633 144.305 108.882 138.75 113.835 132.947C123.825 121.237 132.723 108.71 140.378 95.3548C140.942 94.3694 139.454 93.5031 138.861 94.466Z" fill="#516138"/>
<path d="M88.1851 147.389C86.2142 149.949 84.1885 152.464 82.1146 154.938C81.1227 156.12 80.134 157.305 79.1035 158.451C78.234 159.414 77.2872 160.019 76.1761 160.66C75.4547 161.076 75.5191 162.396 76.4241 162.557C78.0504 162.844 79.3032 161.913 80.3595 160.76C81.4834 159.53 82.4688 158.152 83.4865 156.834C85.6409 154.042 87.731 151.199 89.7599 148.313C90.4394 147.334 88.8807 146.487 88.1851 147.389Z" fill="#516138"/>
<path d="M79.403 153.398C78.3499 154.883 77.2098 156.303 75.9957 157.659C75.3871 158.335 74.7623 158.995 74.1182 159.64C73.4322 160.325 72.0829 161.24 72.2118 162.335C72.2665 162.802 72.5306 163.372 73.0684 163.459C73.8413 163.581 74.4241 163.282 74.978 162.754C75.3259 162.425 75.6383 162.048 75.9571 161.691C76.6173 160.953 77.2517 160.197 77.8668 159.424C79.1131 157.855 80.2724 156.226 81.3352 154.525C81.654 154.013 81.4447 153.295 80.9359 152.996C80.3723 152.67 79.754 152.906 79.403 153.398Z" fill="#516138"/>
<path d="M72.5666 141.098C71.9998 144.395 71.5296 147.712 71.1625 151.039C70.9757 152.727 70.8147 154.417 70.6827 156.108C70.5506 157.773 70.2962 159.525 70.5087 161.187C70.6407 162.233 72.296 162.723 72.5472 161.464C72.8693 159.837 72.8081 158.15 72.8886 156.498C72.9692 154.871 73.0722 153.245 73.201 151.622C73.4683 148.263 73.8418 144.914 74.3217 141.581C74.4827 140.444 72.7663 139.932 72.5666 141.098Z" fill="#516138"/>
<path d="M64.2191 133.507C64.6925 137.526 65.2464 141.535 65.8873 145.529C66.5378 149.574 67.0821 153.751 68.4476 157.625C68.7277 158.414 70.1061 158.365 70.0159 157.412C69.6295 153.39 68.5796 149.442 67.8163 145.48C67.0402 141.436 66.3543 137.375 65.7553 133.301C65.6297 132.438 64.116 132.631 64.2191 133.507Z" fill="#516138"/>
<path d="M146.854 101.178C145.502 103.007 144.101 104.81 142.864 106.72C142.597 107.135 142.748 107.709 143.118 107.995C143.479 108.272 144.104 108.298 144.416 107.918C145.924 106.095 147.279 104.15 148.674 102.24C148.999 101.793 148.764 101.045 148.297 100.798C147.743 100.508 147.205 100.701 146.854 101.178Z" fill="#516138"/>
<path d="M129.948 130.386C117.343 142.037 103.917 152.865 89.85 162.703C88.6456 163.547 89.8017 165.543 91.0093 164.687C105.208 154.645 118.583 143.609 131.12 131.558C131.896 130.817 130.73 129.661 129.948 130.386Z" fill="#516138"/>
<path d="M117.35 146.832C114.716 149.447 111.933 151.914 109.003 154.191C107.557 155.315 106.069 156.384 104.568 157.434C103.818 157.956 103.061 158.468 102.295 158.97C101.531 159.469 100.53 159.907 100.092 160.738C99.7407 161.405 100.166 162.329 100.987 162.3C101.966 162.265 102.739 161.604 103.525 161.08C104.285 160.571 105.038 160.049 105.782 159.518C107.351 158.397 108.871 157.209 110.358 155.978C113.296 153.55 116.068 150.938 118.683 148.166C119.511 147.283 118.213 145.976 117.35 146.832Z" fill="#516138"/>
<path d="M117.383 151.98C116.297 153.313 115.07 154.533 113.714 155.59C113.054 156.105 112.359 156.572 111.644 157.007C110.884 157.47 110.159 157.95 109.431 158.462C109.08 158.707 108.897 159.126 109.077 159.538C109.248 159.924 109.673 160.156 110.095 160.037C111.019 159.773 111.859 159.422 112.674 158.907C113.476 158.398 114.243 157.834 114.983 157.242C116.397 156.108 117.666 154.807 118.78 153.381C119.109 152.959 119.192 152.392 118.78 151.98C118.432 151.632 117.721 151.564 117.383 151.98Z" fill="#516138"/>
<path d="M138.77 189.306C136.98 182.478 133.334 176.221 128.188 171.381C125.66 169.004 122.703 166.673 119.344 165.632C117.667 165.114 115.895 165.027 114.16 164.834C112.392 164.637 110.81 164.132 109.165 163.484C108.076 163.056 107.458 164.566 108.108 165.297C110.237 167.69 113.931 167.262 116.823 167.561C120.555 167.945 123.583 170.186 126.272 172.65C131.312 177.265 134.973 183.274 136.799 189.85C137.153 191.116 139.105 190.581 138.77 189.306Z" fill="#516138"/>
<path d="M143.861 177.125C142.392 172.909 138.94 169.918 135.059 167.924C132.869 166.797 130.551 165.94 128.245 165.087C125.813 164.188 123.353 163.016 120.751 162.784C119.868 162.707 119.711 163.911 120.332 164.33C122.219 165.599 124.509 166.175 126.647 166.9C128.879 167.657 131.14 168.378 133.294 169.338C137.066 171.016 140.73 173.57 142.257 177.566C142.637 178.545 144.218 178.146 143.861 177.125Z" fill="#516138"/>
<path d="M153.654 134.332C149.876 139.713 145.703 144.804 141.162 149.561C138.966 151.86 136.686 154.079 134.331 156.211C133.124 157.306 131.894 158.375 130.647 159.425C129.588 160.317 127.907 161.383 127.556 162.774C127.424 163.299 127.81 163.853 128.37 163.847C129.784 163.824 131.111 162.491 132.164 161.634C133.491 160.556 134.769 159.412 136.038 158.263C138.515 156.018 140.908 153.683 143.207 151.258C147.828 146.386 152.066 141.156 155.915 135.652C156.881 134.267 154.617 132.963 153.654 134.332Z" fill="#516138"/>
<path d="M148.321 147.384C146.862 150.118 145.104 152.685 143.049 155.01C142.035 156.157 140.953 157.245 139.816 158.269C138.65 159.319 137.394 160.256 136.306 161.387C135.555 162.163 136.499 163.306 137.426 162.839C138.885 162.108 140.106 161.023 141.284 159.902C142.45 158.791 143.552 157.609 144.576 156.369C146.634 153.877 148.405 151.168 149.835 148.27C150.334 147.265 148.856 146.379 148.321 147.384Z" fill="#516138"/>
<path d="M148.733 154.976C147.654 156.194 146.491 157.334 145.252 158.387C144.643 158.905 143.98 159.366 143.393 159.907C142.794 160.457 142.176 160.982 141.542 161.488C141.278 161.697 141.297 162.148 141.487 162.39C141.709 162.667 142.057 162.721 142.373 162.567C143.11 162.203 143.835 161.816 144.543 161.401C145.281 160.969 145.944 160.377 146.595 159.823C147.847 158.754 149.02 157.591 150.108 156.355C150.456 155.962 150.498 155.366 150.108 154.98C149.757 154.622 149.084 154.583 148.733 154.976Z" fill="#516138"/>
<path d="M43.0053 13.8581C42.4675 19.5615 42.7379 25.6836 44.7282 31.0971C45.0115 31.8668 46.1194 31.5705 45.9584 30.759C45.4045 27.9636 44.8119 25.1458 44.5349 22.3053C44.2612 19.4971 44.2483 16.6728 44.4706 13.8581C44.5479 12.9146 43.0923 12.9274 43.0053 13.8581Z" fill="#516138"/>
<path d="M46.8774 24.124C46.8419 27.5248 47.0802 30.9127 47.5794 34.2748C47.8338 35.9752 48.1558 37.6659 48.5487 39.3405C48.932 40.9636 49.3056 42.6415 50.1783 44.081C50.5905 44.7605 51.8722 44.5383 51.7853 43.6463C51.6178 41.9717 51.0349 40.3936 50.6001 38.7738C50.1847 37.2344 49.8305 35.6821 49.5342 34.1138C48.9126 30.8161 48.5841 27.4765 48.5069 24.1208C48.4811 23.0774 46.887 23.0741 46.8774 24.124Z" fill="#516138"/>
<path d="M51.6976 31.3052C51.3562 35.1762 51.3434 39.0697 51.688 42.9439C51.8522 44.7956 52.097 46.6377 52.4126 48.4701C52.7379 50.3541 53.1017 52.267 54.0034 53.9674C54.3899 54.6952 55.6298 54.3764 55.5815 53.5391C55.4785 51.7614 54.9824 50.0417 54.5992 48.3059C54.1773 46.3962 53.8392 44.4639 53.6009 42.522C53.1436 38.8024 53.0212 35.0506 53.2016 31.3052C53.2467 30.3294 51.7813 30.3552 51.6976 31.3052Z" fill="#516138"/>
<path d="M55.0843 40.1864C55.1423 43.3811 55.2003 46.5758 55.2583 49.7737C55.3162 52.8814 55.1005 56.1276 55.6737 59.187C55.8412 60.0758 57.0198 59.7345 57.1164 58.9906C57.5158 55.9215 57.1036 52.6785 56.9908 49.5869C56.8781 46.4534 56.7622 43.3199 56.6463 40.1864C56.6108 39.1849 55.065 39.1752 55.0843 40.1864Z" fill="#516138"/>
<path d="M67.8993 30.6137C67.9927 31.8342 68.0894 33.0547 68.1828 34.2785C68.2311 34.8872 68.2633 35.5023 68.3245 36.1109C68.3567 36.433 68.3792 36.7711 68.4469 37.0867C68.5145 37.3991 68.6432 37.7083 68.7431 38.0142C68.8558 38.3491 69.1489 38.6003 69.5128 38.6003C69.8348 38.6003 70.2278 38.3556 70.2825 38.0142C70.3856 37.3701 70.4661 36.7647 70.4306 36.1109C70.3952 35.4991 70.3308 34.8904 70.2793 34.2785C70.1795 33.058 70.0764 31.8374 69.9766 30.6137C69.9315 30.0565 69.5321 29.5767 68.9395 29.5767C68.4114 29.5735 67.8575 30.0501 67.8993 30.6137Z" fill="#516138"/>
<path d="M72.2649 27.8821C72.5289 31.0381 72.8156 34.2231 73.4597 37.3276C73.6239 38.123 75.0055 37.9588 74.9024 37.1311C74.5192 34.0428 73.9878 30.9737 73.64 27.8788C73.5981 27.5085 73.3533 27.1961 72.954 27.1929C72.603 27.1897 72.2359 27.5117 72.2649 27.8821Z" fill="#516138"/>
<path d="M76.4328 27.2046C76.3233 29.0113 76.3105 30.8212 76.4007 32.6278C76.4876 34.4087 76.597 36.238 77.0576 37.9641C77.2154 38.5599 78.1944 38.4568 78.1557 37.816C78.0495 36.0479 77.7629 34.296 77.6631 32.5248C77.5632 30.7535 77.56 28.9759 77.6469 27.2046C77.6824 26.4221 76.4779 26.4285 76.4328 27.2046Z" fill="#516138"/>
<path d="M79.7117 23.3001C79.9951 25.3258 80.1658 27.3707 80.2269 29.4157C80.2591 30.4366 80.2656 31.4542 80.2431 32.4751C80.2334 32.9453 80.2108 33.4155 80.198 33.8857C80.1786 34.4718 80.2495 34.8808 80.5007 35.4154C80.7293 35.9049 81.4668 35.8373 81.7116 35.4154C82.2655 34.4686 82.1142 33.3028 82.0949 32.2368C82.0755 31.2159 82.0336 30.1951 81.9595 29.1774C81.8114 27.0712 81.5473 24.9715 81.1866 22.8911C81.1158 22.4821 80.6166 22.2567 80.2431 22.3565C79.8051 22.4757 79.6569 22.8911 79.7117 23.3001Z" fill="#516138"/>
<path d="M85.0575 23.7822C85.064 24.6903 85.0286 25.6114 85.1059 26.5163C85.1252 26.7321 85.1832 26.9221 85.341 27.0799C85.4794 27.2184 85.7048 27.3214 85.9045 27.315C86.365 27.2957 86.6646 26.964 86.7032 26.5163C86.7773 25.6114 86.745 24.6903 86.7515 23.7822C86.7547 23.341 86.3618 22.9159 85.9045 22.9352C85.4504 22.9577 85.0543 23.3088 85.0575 23.7822Z" fill="#516138"/>
<path d="M91.6473 30.7529C90.9323 32.6014 90.2626 34.466 89.6475 36.35C89.0356 38.2243 88.3785 40.1243 88.0114 42.0663C87.8407 42.9744 89.0871 43.3222 89.3963 42.4463C90.0565 40.5784 90.5395 38.6494 91.1546 36.7654C91.7697 34.8815 92.4396 33.0168 93.1545 31.1683C93.5184 30.2312 92.008 29.8222 91.6473 30.7529Z" fill="#516138"/>
<path d="M94.3198 34.1627C93.7788 35.4638 93.241 36.7648 92.7 38.0659C92.4391 38.6939 92.1815 39.3186 91.9206 39.9466C91.7854 40.2751 91.6243 40.6229 91.5438 40.9707C91.4633 41.325 91.4246 41.6921 91.3635 42.0496C91.2346 42.8289 92.1814 43.2733 92.6484 42.5906C92.8513 42.2943 93.0767 42.0012 93.2603 41.6953C93.4599 41.3636 93.5952 40.9675 93.7369 40.61C93.9946 39.9563 94.2457 39.2993 94.4969 38.6456C95.0122 37.3123 95.5307 35.9758 96.046 34.6425C96.2199 34.1917 95.8528 33.6635 95.4212 33.5444C94.906 33.3995 94.5066 33.7151 94.3198 34.1627Z" fill="#516138"/>
<path d="M30.0552 41.2054C29.1084 58.8018 31.9843 77.11 40.103 92.8772C40.4766 93.6018 41.7583 93.093 41.4459 92.3104C34.8827 75.9152 30.8281 58.9564 31.366 41.2054C31.3917 40.3616 30.1003 40.3713 30.0552 41.2054Z" fill="#516138"/>
<path d="M35.6472 56.9355C35.9016 62.1494 36.6069 67.3407 37.7985 72.4258C38.9675 77.4207 40.4682 82.6668 42.9898 87.1593C43.3988 87.8871 44.6387 87.4008 44.3617 86.5828C42.7418 81.7844 40.8192 77.1534 39.5697 72.2261C38.2976 67.2119 37.5118 62.1011 37.1801 56.9387C37.1157 55.9565 35.5989 55.9436 35.6472 56.9355Z" fill="#516138"/>
<path d="M39.9361 58.6532C40.1519 64.3405 40.8378 70.2339 42.8409 75.5863C43.1533 76.4268 44.3868 76.108 44.1968 75.2127C43.0213 69.709 41.8169 64.289 41.5013 58.6532C41.4433 57.6517 39.8975 57.642 39.9361 58.6532Z" fill="#516138"/>
<path d="M42.7213 50.4439C43.0916 57.6576 44.1866 64.8231 46.0545 71.8018C47.0077 75.37 48.1606 78.8867 49.5003 82.3262C50.7756 85.6013 52.0638 88.9989 54.1925 91.8168C54.6627 92.4383 55.8478 92.1195 55.5644 91.2371C54.5113 87.9684 52.8238 84.9411 51.5227 81.7658C50.1669 78.4584 48.9915 75.0802 47.9931 71.6472C45.9836 64.7297 44.747 57.6254 44.2543 50.4406C44.1866 49.4681 42.6698 49.452 42.7213 50.4439Z" fill="#516138"/>
<path d="M47.4919 86.2179C48.3518 89.274 49.26 92.3174 50.2229 95.3413C51.1633 98.2977 51.9909 101.396 53.3725 104.175C53.7589 104.948 54.8861 104.391 54.7154 103.608C54.0455 100.584 52.8314 97.6536 51.8942 94.7005C50.9539 91.728 50.0618 88.7427 49.2148 85.7412C48.9025 84.6366 47.1795 85.1068 47.4919 86.2179Z" fill="#516138"/>
<path d="M44.5469 97.6708C45.8608 100.576 47.2071 103.464 48.5983 106.331C49.281 107.741 49.9733 109.145 50.6722 110.543C51.3871 111.969 52.0442 113.522 53.0135 114.797C53.4837 115.415 54.672 115.1 54.3854 114.221C53.883 112.681 53.0038 111.238 52.2663 109.805C51.5481 108.414 50.8429 107.02 50.144 105.619C48.6981 102.72 47.294 99.7995 45.9253 96.8624C45.4905 95.9317 44.1282 96.7433 44.5469 97.6708Z" fill="#516138"/>
<path d="M42.5055 104.842C44.2928 107.698 46.1285 110.526 48.0157 113.321C49.8803 116.081 51.7384 118.883 53.822 121.485C54.4307 122.245 55.7221 121.25 55.1747 120.442C53.3133 117.695 51.2876 115.06 49.3939 112.332C47.5003 109.605 45.655 106.845 43.8548 104.053C43.3138 103.209 41.9709 103.982 42.5055 104.842Z" fill="#516138"/>
<path d="M-7.74097 127.298C3.48869 126.429 14.9309 127.173 25.9287 129.627C31.2714 130.818 36.5175 132.422 41.6155 134.419C44.2595 135.456 46.8615 136.602 49.4089 137.852C51.895 139.069 54.2621 140.644 56.832 141.655C58.4133 142.277 58.9994 140 57.8884 139.146C53.6503 135.884 47.7117 133.891 42.7233 132.049C37.3162 130.052 31.7448 128.49 26.0897 127.36C14.9019 125.125 3.56928 124.719 -7.74411 126.181C-8.43328 126.271 -8.46878 127.356 -7.74097 127.298Z" fill="#516138"/>
<path d="M23.3592 138.939C29.9064 139.335 36.4052 140.253 42.7978 141.722C45.9184 142.44 49.0228 143.216 52.0887 144.144C53.6216 144.607 55.1449 145.103 56.6553 145.628C57.937 146.076 59.0288 146.662 60.3942 146.475C61.0415 146.388 61.0931 145.535 60.7453 145.142C59.7985 144.06 58.2559 143.799 56.9258 143.355C55.2995 142.81 53.6635 142.298 52.0147 141.825C48.9359 140.942 45.8249 140.163 42.6786 139.574C36.3021 138.382 29.8419 137.722 23.356 137.564C22.4704 137.545 22.4833 138.885 23.3592 138.939Z" fill="#516138"/>
<path d="M39.9362 150.146C46.6766 149.073 53.6101 149.064 60.3634 150.046C61.6741 150.236 62.228 148.223 60.9141 148.046C53.7711 147.077 46.6121 147.315 39.5368 148.7C38.5803 148.887 38.9991 150.297 39.9362 150.146Z" fill="#516138"/>
<path d="M8.54877 168.541C17.6401 165.678 26.9213 163.34 36.3185 161.736C41.2168 160.899 46.1505 160.29 51.1036 159.904C55.844 159.534 60.6908 159.82 65.3991 159.292C66.9835 159.115 66.9706 157.028 65.3991 156.835C60.4653 156.229 55.0905 156.886 50.1536 157.299C45.5999 157.682 41.0591 158.249 36.5472 158.993C26.7925 160.603 17.2729 163.173 8.05924 166.754C6.97073 167.176 7.38941 168.905 8.54877 168.541Z" fill="#516138"/>
<path d="M12.2186 154.172C14.7724 153.541 17.339 152.981 19.925 152.497C22.5078 152.014 25.1099 151.663 27.6766 151.103C28.4753 150.929 28.3142 149.599 27.4801 149.66C24.8362 149.853 22.2405 150.388 19.6545 150.955C17.0395 151.528 14.4471 152.182 11.8708 152.906C11.0592 153.138 11.3974 154.375 12.2186 154.172Z" fill="#516138"/>
<path d="M11.9435 149.317C13.4023 148.844 14.8773 148.413 16.3652 148.033C17.0801 147.849 17.8014 147.678 18.5228 147.517C19.3118 147.343 20.0428 147.089 20.7996 146.806C21.4534 146.558 21.4116 145.511 20.6258 145.521C19.8046 145.533 19.022 145.585 18.2169 145.759C17.4665 145.92 16.7194 146.107 15.9787 146.3C14.4651 146.69 12.9644 147.134 11.4798 147.624C10.4106 147.978 10.8646 149.668 11.9435 149.317Z" fill="#516138"/>
<path d="M7.51664 144.563C7.92564 144.456 8.33467 144.353 8.74367 144.247C8.94333 144.196 9.14938 144.154 9.34583 144.089C9.59702 144.009 9.84501 143.87 10.0833 143.761C10.2315 143.693 10.3442 143.529 10.4021 143.387C10.4665 143.233 10.4956 143.043 10.4409 142.878C10.3378 142.563 10.0383 142.286 9.68725 142.305C9.42318 142.321 9.15587 142.324 8.89502 142.366C8.68247 142.402 8.47312 142.463 8.26701 142.511C7.85479 142.608 7.44581 142.708 7.0336 142.804C6.56986 142.914 6.25106 143.468 6.3992 143.925C6.55056 144.405 7.0207 144.692 7.51664 144.563Z" fill="#516138"/>
<path d="M-0.226313 114.172C5.0391 114.172 10.2659 114.752 15.4218 115.798C17.9048 116.304 20.362 116.938 22.7805 117.702C25.2377 118.478 27.7045 119.763 30.2455 120.185C31.4628 120.388 32.0586 118.967 31.0699 118.23C28.9509 116.655 25.9752 115.924 23.4729 115.193C20.9481 114.456 18.3846 113.857 15.7954 113.399C10.5074 112.465 5.12929 112.25 -0.22307 112.575C-1.24073 112.636 -1.26007 114.172 -0.226313 114.172Z" fill="#516138"/>
<path d="M24.8146 121.758C26.5279 122.421 28.2283 123.149 29.9867 123.684C30.3989 123.809 30.8432 123.568 31.0043 123.184C31.1556 122.824 31.043 122.286 30.6501 122.109C28.911 121.31 27.085 120.701 25.2913 120.035C24.8533 119.871 24.2929 120.215 24.1931 120.66C24.0739 121.172 24.3444 121.577 24.8146 121.758Z" fill="#516138"/>
<path d="M35.9234 127.032C36.1005 127.132 36.2808 127.235 36.4579 127.335C36.5449 127.383 36.6318 127.434 36.7188 127.486C36.8089 127.537 36.9088 127.576 37.0022 127.621C37.0763 127.669 37.1536 127.692 37.2405 127.698C37.3243 127.718 37.4113 127.715 37.495 127.686C37.5465 127.663 37.598 127.644 37.6463 127.621C37.7204 127.583 37.7816 127.528 37.8267 127.457C37.9104 127.347 37.9684 127.209 37.9652 127.07C37.9587 126.903 37.9007 126.739 37.7783 126.62C37.7075 126.552 37.6399 126.478 37.5626 126.414C37.4853 126.346 37.4048 126.281 37.3243 126.217C37.1665 126.088 37.0087 125.959 36.8541 125.831C36.7575 125.737 36.6447 125.67 36.5159 125.634C36.4483 125.625 36.3807 125.615 36.3131 125.608C36.1746 125.608 36.0458 125.644 35.9266 125.715C35.8365 125.763 35.7656 125.827 35.7108 125.911C35.6432 125.985 35.5981 126.072 35.5723 126.172C35.5401 126.275 35.5369 126.375 35.5595 126.478C35.5627 126.581 35.5948 126.674 35.6496 126.761C35.7172 126.871 35.8107 126.961 35.9234 127.032Z" fill="#516138"/>
<path d="M174.468 99.6067C176.655 106.031 177.383 112.74 176.829 119.496C176.272 126.269 173.93 132.465 171.48 138.738C171.045 139.852 172.687 140.348 173.29 139.501C177.305 133.856 178.948 126.652 179.428 119.828C179.924 112.81 178.739 105.68 176.191 99.1333C175.785 98.0802 174.095 98.5021 174.468 99.6067Z" fill="#516138"/>
<path d="M185.887 115.491C185.047 119.137 183.997 122.727 182.725 126.244C182.09 127.999 181.405 129.738 180.657 131.448C179.913 133.155 178.98 134.814 178.477 136.611C178.133 137.844 179.749 138.372 180.432 137.435C181.566 135.88 182.223 133.976 182.931 132.192C183.604 130.489 184.229 128.763 184.802 127.02C185.987 123.404 186.941 119.716 187.675 115.984C187.9 114.824 186.158 114.319 185.887 115.491Z" fill="#516138"/>
<path d="M194.018 118.657C189.806 130.669 182.37 141.535 173.005 150.137C168.319 154.439 163.144 158.156 157.505 161.106C154.771 162.539 151.953 163.804 149.058 164.877C146.388 165.866 142.92 166.268 140.72 168.12C139.934 168.78 140.317 170.352 141.354 170.519C144.356 171.012 147.689 169.208 150.404 168.062C153.376 166.806 156.268 165.379 159.064 163.763C164.754 160.478 170.123 156.536 174.911 152.037C184.544 142.991 191.632 131.687 195.651 119.105C195.983 118.061 194.376 117.636 194.018 118.657Z" fill="#516138"/>
<path d="M201.534 131.829C195.023 140.422 187.071 147.996 178.289 154.24C174.087 157.229 169.662 159.908 165.079 162.275C162.651 163.528 160.178 164.694 157.656 165.747C155.308 166.729 152.851 167.48 150.674 168.819C149.927 169.28 150.162 170.707 151.157 170.604C156.297 170.072 161.556 167.158 166.1 164.832C171.056 162.298 175.793 159.338 180.276 156.037C189.116 149.526 196.707 141.658 203.132 132.767C203.837 131.791 202.24 130.899 201.534 131.829Z" fill="#516138"/>
<path d="M197.816 149.369C192.486 154.257 186.57 158.325 180.177 161.7C177.005 163.374 173.743 164.862 170.374 166.105C167.006 167.349 163.492 168.163 160.165 169.503C159.283 169.857 159.277 171.403 160.41 171.323C164.088 171.055 167.608 169.815 171.038 168.514C174.487 167.204 177.862 165.68 181.108 163.922C187.658 160.376 193.668 155.742 198.965 150.522C199.719 149.781 198.585 148.664 197.816 149.369Z" fill="#516138"/>
<path d="M215.927 114.707C215.64 118.169 214.697 121.464 213.389 124.671C212.942 125.766 214.832 126.575 215.315 125.483C216.816 122.095 217.586 118.401 217.779 114.707C217.843 113.506 216.024 113.532 215.927 114.707Z" fill="#516138"/>
<path d="M202.075 97.4729C202.645 99.4792 203.099 101.518 203.425 103.579C203.75 105.633 203.792 107.72 204.249 109.746C204.378 110.313 205.367 110.367 205.45 109.746C205.521 109.224 205.627 108.693 205.618 108.168C205.608 107.624 205.528 107.063 205.466 106.522C205.354 105.472 205.212 104.423 205.038 103.379C204.684 101.244 204.194 99.1346 203.579 97.0607C203.299 96.0945 201.801 96.5003 202.075 97.4729Z" fill="#516138"/>
<path d="M196.803 95.5616C196.916 97.072 197.028 98.5824 197.141 100.09C197.196 100.843 197.254 101.6 197.309 102.353C197.37 103.162 197.482 103.861 197.769 104.617C197.975 105.165 198.89 105.31 199.031 104.617C199.115 104.208 199.202 103.816 199.212 103.397C199.221 103.046 199.183 102.701 199.151 102.35C199.086 101.597 199.019 100.84 198.954 100.086C198.822 98.5759 198.69 97.0655 198.558 95.5584C198.516 95.085 198.185 94.6792 197.679 94.6792C197.234 94.6824 196.768 95.085 196.803 95.5616Z" fill="#516138"/>
<path d="M194.411 98.1946C194.665 99.2767 194.833 100.365 194.894 101.476C194.926 102.04 194.975 102.6 194.987 103.167C195 103.782 195.155 104.384 195.242 104.993C195.287 105.312 195.667 105.544 195.966 105.544C196.298 105.544 196.601 105.312 196.691 104.993C196.868 104.371 197.042 103.753 197.039 103.103C197.036 102.465 197 101.837 196.913 101.206C196.749 100.024 196.478 98.8645 196.108 97.7309C195.754 96.6553 194.15 97.09 194.411 98.1946Z" fill="#516138"/>
<path d="M233.683 92.2322C233.458 92.931 233.229 93.6266 233.004 94.3255C232.898 94.6572 232.75 94.9953 232.675 95.3334C232.588 95.7296 232.595 96.1643 232.566 96.5701C232.547 96.8309 232.769 97.0886 233.01 97.1562C233.274 97.2303 233.551 97.1047 233.696 96.876C233.918 96.5282 234.192 96.1804 234.337 95.7908C234.46 95.4591 234.563 95.1209 234.675 94.786C234.91 94.0904 235.142 93.3947 235.377 92.6991C235.522 92.2644 235.21 91.7201 234.765 91.6203C234.282 91.5076 233.835 91.762 233.683 92.2322Z" fill="#516138"/>
<path d="M235.667 95.1971C235.29 95.8766 234.917 96.5561 234.54 97.2356C234.144 97.9505 233.696 98.6526 233.426 99.4255C233.294 99.8023 233.545 100.221 233.886 100.366C234.266 100.527 234.656 100.372 234.885 100.041C235.31 99.4126 235.58 98.6687 235.896 97.9795C236.215 97.2839 236.534 96.5851 236.852 95.8895C237.001 95.5642 236.955 95.1359 236.604 94.9523C236.282 94.7784 235.851 94.8589 235.667 95.1971Z" fill="#516138"/>
<path d="M235.787 99.9916C235.156 101.038 234.525 102.085 233.89 103.131C233.581 103.647 233.259 104.152 232.96 104.674C232.612 105.276 232.412 105.93 232.229 106.597C231.929 107.676 233.307 108.468 234.096 107.685C234.586 107.199 235.053 106.706 235.41 106.11C235.716 105.595 236.003 105.064 236.299 104.542C236.901 103.479 237.504 102.413 238.106 101.351C238.451 100.739 238.27 99.8563 237.626 99.5149C236.972 99.1639 236.174 99.3475 235.787 99.9916Z" fill="#516138"/>
<path d="M206.447 61.7554C206.151 63.897 205.539 65.9452 204.56 67.8742C204.07 68.8403 203.504 69.7743 202.898 70.6728C202.541 71.2041 202.238 71.5552 201.942 71.9996C201.571 72.5535 201.365 73.1106 201.188 73.7483C200.831 75.0236 202.222 75.9478 203.323 75.3875C203.922 75.0815 204.389 74.7369 204.814 74.2152C205.233 73.6967 205.568 73.1235 205.89 72.5406C206.499 71.436 206.995 70.267 207.4 69.0754C208.167 66.8308 208.585 64.4315 208.708 62.0645C208.769 60.7925 206.627 60.4608 206.447 61.7554Z" fill="#516138"/>
<path d="M203.988 58.8318C203.467 59.901 202.868 60.9347 202.195 61.917C202.03 62.1553 201.863 62.3904 201.689 62.6223C201.499 62.8767 201.454 62.9346 201.245 63.1923C200.784 63.7623 200.469 64.1584 200.105 64.7799C199.725 65.4272 200.507 66.2968 201.174 65.8491C201.457 65.6591 201.747 65.4723 201.992 65.234C202.211 65.0183 202.407 64.7864 202.6 64.5481C203.019 64.036 203.418 63.5111 203.798 62.9701C204.504 61.9685 205.125 60.909 205.666 59.8108C205.892 59.3535 205.805 58.7352 205.318 58.4776C204.88 58.2521 204.227 58.3423 203.988 58.8318Z" fill="#516138"/>
<path d="M206.687 60.3659C205.695 62.1726 204.601 63.9213 203.399 65.5991C202.804 66.43 202.163 67.219 201.551 68.037C200.936 68.8582 200.063 69.6987 199.918 70.7422C199.834 71.3508 200.298 72.0915 201.016 71.8403C202.159 71.441 202.762 70.4105 203.451 69.4701C204.085 68.607 204.62 67.6634 205.151 66.7327C206.22 64.8552 207.161 62.9133 207.995 60.9198C208.317 60.163 207.071 59.6639 206.687 60.3659Z" fill="#516138"/>
<path d="M207.628 63.8849C206.272 66.5095 204.919 69.1374 203.564 71.7621C203.267 72.3353 203.367 73.0374 203.899 73.4367C204.459 73.8554 205.074 73.7426 205.602 73.3336C207.309 72.0133 208.5 70.0456 208.974 67.9459C209.238 66.7736 208.063 65.9105 207.013 66.4387C204.118 67.8847 201.693 70.2903 200.25 73.1887C201.106 73.5494 201.96 73.9101 202.816 74.2708C203.148 73.3272 203.274 72.2999 203.155 71.308C203.061 70.5286 202.575 69.9007 201.728 69.8813C200.362 69.8491 198.878 70.577 198.617 72.0165C198.443 72.9794 199.393 73.8811 200.327 73.3336C200.398 73.2886 200.472 73.2467 200.549 73.2113C200.356 73.3047 200.44 73.2725 200.797 73.1147C200.936 73.0374 201.061 72.9375 201.203 72.8602C201.264 72.828 201.325 72.7958 201.387 72.7669C201.255 72.8216 201.267 72.8216 201.428 72.7636C201.599 72.7282 201.606 72.7218 201.454 72.7379C201.544 72.7282 201.638 72.7282 201.728 72.7314C201.271 72.3836 200.81 72.0326 200.353 71.6848C200.33 71.5785 200.33 71.6172 200.353 71.7975C200.359 71.907 200.362 72.0165 200.362 72.126C200.362 72.2902 200.356 72.4545 200.34 72.6187C200.356 72.4706 200.288 72.8989 200.288 72.8925C200.243 73.1082 200.179 73.3176 200.108 73.5237C199.609 75.0115 201.986 76.0517 202.675 74.6057C203.911 72.0101 205.802 70.0424 208.362 68.7445C207.708 68.2421 207.055 67.7398 206.398 67.2341C206.018 68.97 205.167 70.3258 203.77 71.4948C204.449 72.0197 205.129 72.5446 205.808 73.0663C207.067 70.3869 208.327 67.7043 209.589 65.0249C209.85 64.471 209.744 63.8012 209.183 63.4727C208.671 63.1796 207.911 63.3374 207.628 63.8849Z" fill="#516138"/>
<path d="M189.275 59.8426C188.931 60.4834 188.589 61.1243 188.245 61.762C188.052 62.1259 187.845 62.4801 187.688 62.8601C187.623 63.0179 187.543 63.1757 187.511 63.3432C187.472 63.5364 187.456 63.7361 187.43 63.9293C187.388 64.232 187.456 64.5637 187.752 64.7215C188.042 64.8761 188.361 64.8278 188.602 64.612C188.738 64.4929 188.873 64.3737 189.008 64.2546C189.188 64.0968 189.317 63.881 189.449 63.6813C189.639 63.3915 189.791 63.0662 189.955 62.7603C190.299 62.1194 190.641 61.4785 190.985 60.8409C191.23 60.3836 191.114 59.7427 190.631 59.4883C190.171 59.2436 189.536 59.3563 189.275 59.8426Z" fill="#516138"/>
<path d="M191.255 62.0541C190.756 62.7851 190.254 63.5162 189.755 64.2472C189.51 64.6079 189.262 64.9654 189.017 65.3261C188.744 65.7254 188.547 66.1956 188.367 66.6432C188.241 66.9556 188.447 67.3936 188.734 67.545C189.04 67.706 189.452 67.6866 189.7 67.4194C190.019 67.078 190.341 66.6883 190.582 66.2922C190.817 65.909 191.036 65.5161 191.265 65.1296C191.713 64.3664 192.16 63.6064 192.608 62.8431C192.814 62.4889 192.701 61.9704 192.328 61.7739C191.928 61.5646 191.503 61.6934 191.255 62.0541Z" fill="#516138"/>
<path d="M193.931 63.726C193.165 65.0303 192.373 66.3152 191.548 67.5809C191.142 68.2056 190.73 68.8239 190.308 69.4391C189.857 70.096 189.352 70.6982 189.194 71.4969C189.078 72.0766 189.687 72.6659 190.25 72.3085C190.634 72.0637 190.898 71.8093 191.165 71.4389C191.39 71.1298 191.587 70.7981 191.79 70.4728C192.199 69.8223 192.598 69.1686 192.991 68.5116C193.777 67.1944 194.53 65.8547 195.252 64.5021C195.719 63.6294 194.434 62.8726 193.931 63.726Z" fill="#516138"/>
<path d="M197.677 66.4449C196.505 68.0229 195.332 69.601 194.16 71.179C193.001 72.7409 191.68 74.2674 190.763 75.9839C190.247 76.95 191.552 78.0868 192.341 77.2012C193.674 75.7069 194.685 73.9131 195.783 72.2417C196.875 70.58 197.963 68.915 199.055 67.2533C199.29 66.8926 199.126 66.3709 198.769 66.1615C198.36 65.9232 197.934 66.1003 197.677 66.4449Z" fill="#516138"/>
<path d="M151.403 70.9688C151.149 71.7739 150.891 72.5822 150.637 73.3873C150.511 73.7835 150.385 74.1796 150.26 74.5757C150.128 74.9975 150.06 75.4066 149.999 75.8445C149.935 76.2922 150.07 76.7108 150.518 76.8976C150.914 77.0651 151.419 76.9266 151.635 76.5305C151.876 76.0861 152.092 75.6545 152.256 75.1715C152.392 74.7786 152.524 74.3857 152.659 73.9928C152.939 73.1748 153.216 72.36 153.496 71.542C153.68 71.0042 153.287 70.3311 152.74 70.2055C152.147 70.0767 151.587 70.3891 151.403 70.9688Z" fill="#516138"/>
<path d="M154.906 71.2124C154.433 72.1367 153.963 73.0577 153.489 73.982C153 74.9385 152.501 75.8821 152.098 76.8804C151.95 77.2443 152.227 77.6887 152.559 77.8208C152.932 77.9721 153.341 77.8401 153.554 77.4955C154.092 76.6292 154.53 75.7081 154.987 74.7968C155.444 73.8854 155.905 72.9772 156.362 72.0658C156.562 71.6729 156.478 71.1319 156.059 70.9097C155.676 70.7036 155.122 70.7905 154.906 71.2124Z" fill="#516138"/>
<path d="M156.789 76.5834C156.438 77.1019 156.09 77.6236 155.739 78.1421C155.569 78.3933 155.401 78.6445 155.23 78.8957C155.098 79.0921 154.963 79.2724 154.886 79.4979C154.838 79.6428 154.799 79.7909 154.757 79.9391C154.648 80.3094 154.825 80.7828 155.176 80.9664C155.317 81.0405 155.472 81.0823 155.633 81.092C155.884 81.1049 156.09 80.9761 156.277 80.8247C156.399 80.7249 156.535 80.6315 156.647 80.522C156.805 80.3706 156.924 80.1387 157.047 79.9552C157.214 79.7007 157.378 79.4496 157.546 79.1951C157.89 78.6734 158.235 78.1485 158.58 77.6268C158.879 77.1727 158.686 76.461 158.206 76.2066C157.684 75.9329 157.114 76.1003 156.789 76.5834Z" fill="#516138"/>
<path d="M161.358 76.9972C161.187 77.2517 161.013 77.5061 160.833 77.7541C160.733 77.8925 160.633 78.031 160.53 78.1663C160.488 78.221 160.45 78.2758 160.408 78.3305C160.385 78.3563 160.366 78.3853 160.346 78.411C160.388 78.3563 160.388 78.3563 160.346 78.411C159.96 78.907 159.558 79.3868 159.136 79.8538C158.727 80.3079 158.289 80.7362 157.873 81.187C157.654 81.4254 157.419 81.6508 157.207 81.8923C156.959 82.1725 156.81 82.5203 156.633 82.8456C156.456 83.1708 156.498 83.5863 156.762 83.8504C157.042 84.1337 157.426 84.1273 157.767 83.9791C158.115 83.8278 158.469 83.6958 158.759 83.4478C159.004 83.2385 159.232 83.0066 159.461 82.7779C159.96 82.282 160.392 81.7152 160.823 81.1548C161.609 80.1307 162.321 79.0551 162.955 77.928C163.193 77.5061 163.071 76.8974 162.623 76.6623C162.16 76.4176 161.648 76.5657 161.358 76.9972Z" fill="#516138"/>
<path d="M83.3395 60.8056C82.2381 63.8586 81.4233 67.0082 80.937 70.2189C80.6987 71.8034 80.5152 73.3943 80.4508 74.9948C80.3863 76.5664 80.251 78.2281 80.7631 79.7353C81.0143 80.4663 82.1672 80.579 82.3637 79.7353C82.7276 78.1863 82.557 76.5793 82.6214 74.9948C82.6826 73.4909 82.7791 71.9869 82.9562 70.4927C83.3233 67.356 84.0319 64.2675 85.0045 61.2629C85.3458 60.1969 83.7131 59.775 83.3395 60.8056Z" fill="#516138"/>
<path d="M86.0555 68.2219C85.8623 70.2572 85.6015 72.2861 85.2634 74.3053C85.0959 75.2972 84.9155 76.2891 84.7158 77.2745C84.5097 78.289 84.1039 79.3614 84.4195 80.3758C84.5838 80.9104 85.318 81.1745 85.727 80.7204C86.1199 80.2856 86.3099 79.8798 86.4323 79.3098C86.5482 78.7785 86.6352 78.2406 86.7318 77.7093C86.9154 76.6787 87.0796 75.6418 87.2245 74.6048C87.524 72.4857 87.7527 70.357 87.9073 68.2219C87.991 67.0239 86.165 67.0496 86.0555 68.2219Z" fill="#516138"/>
<path d="M90.8412 69.7867C90.0361 71.8478 89.3438 73.954 88.7834 76.0956C88.2328 78.1888 87.624 80.3948 87.6788 82.5719C87.6949 83.2546 88.6707 83.3963 88.8703 82.7329C89.4919 80.6589 89.7012 78.4722 90.2036 76.3661C90.706 74.2535 91.334 72.1731 92.0747 70.1281C92.3549 69.3455 91.1343 69.0332 90.8412 69.7867Z" fill="#516138"/>
<path d="M92.3892 74.4305C91.9867 75.6832 91.5873 76.936 91.188 78.1887C90.7886 79.4415 90.3442 80.6846 90.0512 81.9663C89.9256 82.5202 90.2218 83.1063 90.7854 83.2609C91.3876 83.4251 91.8675 83.0548 92.08 82.5267C92.576 81.3061 92.9238 80.034 93.3135 78.7781C93.7031 77.5221 94.0928 76.2661 94.4825 75.0102C94.6564 74.4498 94.2764 73.8283 93.7257 73.6737C93.1396 73.5094 92.5696 73.8701 92.3892 74.4305Z" fill="#516138"/>
<path d="M86.7635 52.7186C87.9229 60.0161 91.1369 66.8435 96.0384 72.3762C98.4988 75.1522 101.481 77.487 105.146 78.3758C108.605 79.2131 112.917 79.2808 116.124 77.6062C117.016 77.1392 116.511 75.9219 115.648 75.851C112.195 75.5676 108.862 76.5144 105.419 75.5773C102.106 74.6723 99.5487 72.2924 97.275 69.8224C92.7664 64.9209 89.678 58.7988 88.2675 52.3064C88.0549 51.3049 86.6089 51.7429 86.7635 52.7186Z" fill="#516138"/>
<path d="M92.1015 53.4883C92.2239 56.4254 93.1417 59.327 94.8775 61.7165C96.8034 64.367 99.4087 65.974 102.355 67.3008C103.908 67.9996 105.466 68.6244 107.189 68.7113C108.896 68.795 110.574 68.2669 112.139 67.6421C113.856 66.9562 115.553 66.2155 117.256 65.5005C118.793 64.8564 120.702 64.4217 121.314 62.7181C121.491 62.2221 121.205 61.4653 120.712 61.2399C119.292 60.5894 118.116 61.2238 116.757 61.7938C115.353 62.3832 113.949 62.9725 112.542 63.5618C111.202 64.1222 109.824 64.7695 108.381 65.011C106.887 65.259 105.524 64.85 104.146 64.2993C99.0576 62.2672 94.9548 58.8729 94.0112 53.2307C93.8341 52.1454 92.0564 52.403 92.1015 53.4883Z" fill="#516138"/>
<path d="M96.2226 55.2756C93.4853 49.7493 89.8043 44.5451 85.6468 39.9882C83.5696 37.7114 81.1897 36.7291 78.1109 36.7871C75.3188 36.8386 72.4816 37.0447 70.2788 38.9287C69.0679 39.9657 70.6169 41.8271 71.9405 41.0831C73.9082 39.9785 76.3268 39.9528 78.5264 40.0236C79.734 40.0623 80.9191 40.2716 81.9078 41.0187C82.9061 41.7691 83.7016 42.8286 84.4971 43.7787C87.9107 47.8622 90.9444 52.2162 93.9329 56.6121C94.8958 58.0226 96.9827 56.8085 96.2226 55.2756Z" fill="#516138"/>
<path d="M68.2906 47.5396C67.3728 48.8439 66.5838 50.2319 65.9429 51.6908C65.608 52.454 65.302 53.2269 65.0379 54.0159C64.7835 54.7792 64.6612 55.5649 64.5549 56.3604C64.4937 56.8048 64.6612 57.2524 65.1347 57.3813C65.5823 57.5036 66.017 57.2299 66.1555 56.8016C67.0991 53.8742 68.223 51.066 70.0007 48.5347C70.3066 48.0967 70.0812 47.4333 69.6465 47.1821C69.1505 46.8955 68.5966 47.1016 68.2906 47.5396Z" fill="#516138"/>
<path d="M72.1953 47.6367C71.3419 48.8508 70.6108 50.1487 70.0215 51.5109C69.7123 52.2227 69.4289 52.944 69.1906 53.6815C68.9459 54.4415 68.5691 55.3529 68.8332 56.1419C69.0425 56.7731 69.9088 57.1177 70.408 56.5573C70.9619 55.9294 71.0231 55.0985 71.2356 54.3159C71.4224 53.6332 71.6414 52.9601 71.8926 52.2999C72.3918 50.9924 73.0423 49.7494 73.7927 48.5707C74.06 48.1488 73.8796 47.5498 73.461 47.3051C73.0004 47.0345 72.4852 47.2278 72.1953 47.6367Z" fill="#516138"/>
<path d="M76.367 48.8398C75.2978 51.3131 74.1546 53.7639 73.269 56.308C72.889 57.3965 74.6119 58.1243 75.1368 57.0938C76.3606 54.6946 77.3363 52.173 78.3798 49.6868C78.5891 49.1877 78.1962 48.5693 77.7421 48.389C77.2848 48.2054 76.586 48.331 76.367 48.8398Z" fill="#516138"/>
<path d="M126.669 85.9254C126.095 86.7981 125.525 87.6741 124.952 88.5468C124.672 88.9752 124.389 89.4067 124.108 89.835C123.967 90.0508 123.819 90.2601 123.686 90.4791C123.503 90.7818 123.406 91.1361 123.29 91.4678C123.107 91.9895 123.406 92.6883 123.893 92.9459C124.418 93.2229 125.046 93.1585 125.477 92.743C125.741 92.4886 125.989 92.2568 126.195 91.9444C126.327 91.7447 126.45 91.5386 126.578 91.3357C126.862 90.8881 127.145 90.4372 127.429 89.9896C127.986 89.1072 128.543 88.2248 129.097 87.3424C129.49 86.7208 129.248 85.7676 128.594 85.4198C127.889 85.0494 127.1 85.2684 126.669 85.9254Z" fill="#516138"/>
<path d="M132.112 86.6139C131.906 87.1002 131.7 87.5897 131.494 88.076C131.362 88.3884 131.217 88.6943 131.117 89.0196C131.011 89.3641 131.007 89.7409 130.982 90.0984C130.965 90.3335 131.078 90.5783 131.213 90.7554C131.352 90.9357 131.552 91.0935 131.777 91.1451C131.967 91.1901 132.163 91.1901 132.353 91.1451C132.589 91.0903 132.898 90.8681 133.001 90.6459C133.149 90.3238 133.336 89.9986 133.41 89.6508C133.481 89.3158 133.51 88.9712 133.545 88.6299C133.603 88.1017 133.658 87.5736 133.716 87.0454C133.735 86.8619 133.635 86.6622 133.532 86.5237C133.423 86.382 133.265 86.2564 133.084 86.2146C132.933 86.1791 132.779 86.1791 132.627 86.2146C132.447 86.2596 132.186 86.4368 132.112 86.6139Z" fill="#516138"/>
<path d="M-1.27224 278.958C-0.621713 279.393 0.02885 279.825 0.676157 280.26C0.99498 280.472 1.30738 280.701 1.63586 280.9C1.87095 281.042 2.1511 281.21 2.40873 281.284C2.65349 281.354 2.93694 281.354 3.19458 281.377C3.56493 281.409 3.95133 281.148 4.13168 280.839C4.33456 280.491 4.31524 280.092 4.13168 279.744C4.0093 279.509 3.89658 279.248 3.70013 279.065C3.49724 278.875 3.24283 278.685 3.02062 278.53C2.70502 278.311 2.37974 278.102 2.06092 277.889C1.41039 277.454 0.759928 277.023 0.112621 276.588C-0.173998 276.398 -0.621648 276.36 -0.943691 276.45C-1.26251 276.537 -1.60712 276.785 -1.76492 277.081C-2.12883 277.77 -1.90989 278.533 -1.27224 278.958Z" fill="#516138"/>
<path d="M3.97608 271.155C4.20795 272.546 4.99373 273.873 6.04359 274.807C6.63615 275.335 7.28669 275.767 8.03061 276.047C8.32367 276.156 8.62641 276.243 8.93557 276.298C9.26084 276.359 9.58606 276.424 9.91454 276.35C10.0691 276.314 10.2206 276.263 10.3687 276.211C10.7423 276.079 11.0127 275.805 11.0675 275.403C11.1158 275.052 10.9516 274.591 10.6038 274.433C10.4846 274.379 10.3687 274.318 10.2527 274.256C10.037 274.144 9.85987 274.102 9.63444 274.047C9.49274 274.015 9.35425 273.976 9.21577 273.931C9.14814 273.909 9.07731 273.886 9.00968 273.86C8.96459 273.844 8.91943 273.825 8.87435 273.809C8.92587 273.831 8.97741 273.851 9.02894 273.873C8.80673 273.712 8.48795 273.632 8.24319 273.496C8.1176 273.425 7.99201 273.351 7.86963 273.271C7.80844 273.232 7.75048 273.19 7.68929 273.149C7.65064 273.12 7.61196 273.091 7.57332 273.062C7.70536 273.165 7.73431 273.187 7.66668 273.132C7.44125 272.946 7.22557 272.752 7.0259 272.54C6.97759 272.488 6.92924 272.434 6.88094 272.379C6.85839 272.353 6.83262 272.324 6.81008 272.295C6.74889 272.221 6.74887 272.221 6.80683 272.295C6.8648 272.369 6.8648 272.372 6.80683 272.295C6.78429 272.266 6.765 272.237 6.74246 272.208C6.70059 272.15 6.65875 272.089 6.6201 272.028C6.45908 271.783 6.32705 271.529 6.20467 271.268C6.17247 271.194 6.18533 271.223 6.2433 271.358C6.23042 271.326 6.21755 271.29 6.20467 271.255C6.17891 271.187 6.15636 271.12 6.13381 271.049C6.08551 270.901 6.04364 270.746 6.00821 270.595C5.88261 270.057 5.2385 269.69 4.71357 269.857C4.12423 270.051 3.87947 270.572 3.97608 271.155Z" fill="#516138"/>
<path d="M7.61621 268.141C8.05741 268.466 8.49865 268.791 8.93985 269.12C9.15239 269.277 9.35852 269.454 9.58073 269.593C9.7804 269.719 10.0026 269.741 10.228 269.777C10.4051 269.806 10.5758 269.838 10.7529 269.812C10.8527 269.799 10.9172 269.789 11.0041 269.757C11.3906 269.615 11.6031 269.332 11.6385 268.926C11.6417 268.884 11.645 268.846 11.645 268.804C11.6386 268.585 11.5548 268.398 11.4647 268.202C11.3874 268.034 11.3229 267.886 11.2102 267.738C11.0202 267.49 10.7272 267.313 10.4824 267.12C10.0509 266.782 9.6161 266.447 9.18456 266.108C9.02354 265.947 8.83353 265.838 8.61454 265.777C8.4986 265.761 8.38591 265.745 8.26997 265.732C7.86742 265.712 7.49384 265.931 7.25553 266.24C7.03654 266.527 6.95277 266.839 7.00108 267.197C7.01074 267.368 7.05906 267.529 7.15567 267.677C7.26839 267.87 7.42299 268.025 7.61621 268.141Z" fill="#516138"/>
<path d="M8.66962 258.445C9.17845 259.09 9.68727 259.737 10.1961 260.381C10.4441 260.693 10.6889 261.006 10.9368 261.318C11.1977 261.65 11.5036 261.936 11.8031 262.236C12.1831 262.613 12.7885 262.642 13.2072 262.32C13.5969 262.02 13.7933 261.376 13.4842 260.941C13.2072 260.552 12.9432 260.149 12.6212 259.795C12.3378 259.486 12.0543 259.173 11.7709 258.861C11.2106 258.249 10.6535 257.637 10.0931 257.022C9.73886 256.632 9.02711 256.636 8.67286 257.022C8.49574 257.212 8.36689 257.466 8.37655 257.734C8.38943 258.017 8.49571 258.223 8.66962 258.445Z" fill="#516138"/>
<path d="M41.6823 193.774C41.444 195.41 41.7435 197.046 42.6162 198.463C43.4793 199.864 44.7545 200.901 46.3551 201.329C46.8961 201.474 47.5403 201.149 47.6691 200.582C47.8108 199.964 47.479 199.49 46.9219 199.268C47.1602 199.365 46.8962 199.255 46.8607 199.239C46.7963 199.207 46.7319 199.175 46.6675 199.143C46.5258 199.069 46.3905 198.988 46.2585 198.901C46.1973 198.862 46.1393 198.821 46.0781 198.779C46.0266 198.743 45.8689 198.605 46.0718 198.779C45.9623 198.685 45.8496 198.595 45.7401 198.505C45.4953 198.302 45.2666 198.08 45.0573 197.838C45.009 197.784 44.9639 197.726 44.9188 197.671C44.8254 197.561 45.0444 197.854 44.9188 197.671C44.8287 197.542 44.7352 197.407 44.6515 197.272C44.5742 197.149 44.5034 197.024 44.4358 196.892C44.4036 196.827 44.3714 196.763 44.3392 196.698C44.3134 196.64 44.1685 196.408 44.3198 196.663C44.1749 196.418 44.1073 196.07 44.0429 195.797C44.0107 195.658 44.0138 195.458 43.9526 195.33C43.9816 195.394 43.9753 195.549 43.9624 195.388C43.9559 195.301 43.9462 195.217 43.943 195.13C43.9366 194.985 43.9333 194.84 43.9398 194.698C43.943 194.611 43.9495 194.525 43.9559 194.438C43.9623 194.363 44.001 194.09 43.9559 194.405C44.0461 193.797 43.8046 193.108 43.1315 192.953C42.5744 192.821 41.7789 193.12 41.6823 193.774Z" fill="#516138"/>
<path d="M46.4094 189.453C45.8748 191.07 46.155 192.867 46.9794 194.335C47.3756 195.044 47.9134 195.688 48.5478 196.197C48.8827 196.464 49.237 196.715 49.6267 196.902C50.0808 197.118 50.5639 197.198 51.0566 197.263C51.4591 197.314 51.8295 196.908 51.8713 196.544C51.9229 196.123 51.6781 195.768 51.2756 195.633C51.1918 195.604 51.1049 195.575 51.0244 195.543C51.1532 195.594 50.9084 195.488 50.9084 195.488C50.7635 195.417 50.6218 195.34 50.4768 195.269C50.1709 195.121 49.8779 194.95 49.6074 194.747C49.7329 194.841 49.514 194.667 49.514 194.667C49.4464 194.609 49.3819 194.551 49.3175 194.49C49.1984 194.377 49.0856 194.261 48.9761 194.139C48.77 193.91 48.6541 193.752 48.4577 193.421C48.1163 192.851 47.9263 192.348 47.8135 191.633C47.8007 191.556 47.7911 191.475 47.7814 191.282C47.7717 191.121 47.7717 190.96 47.7814 190.796C47.7975 190.458 47.8361 190.255 47.9488 189.878C48.0712 189.466 47.8007 189.009 47.3917 188.896C46.957 188.777 46.5447 189.041 46.4094 189.453Z" fill="#516138"/>
<path d="M51.1587 190.985C51.6256 191.594 52.0958 192.203 52.5628 192.808C52.8398 193.169 53.1103 193.546 53.4065 193.89C53.6545 194.18 53.9058 194.467 54.1538 194.756C54.5016 195.159 55.165 195.143 55.5579 194.84C55.9572 194.534 56.1311 193.906 55.8348 193.462C55.4162 192.834 54.991 192.219 54.537 191.616C54.0829 191.014 53.6288 190.412 53.1747 189.81C52.9847 189.559 52.7947 189.362 52.4791 189.275C52.1989 189.198 51.8286 189.233 51.5806 189.391C51.3326 189.552 51.1137 189.79 51.0461 190.087C50.9784 190.37 50.9719 190.744 51.1587 190.985Z" fill="#516138"/>
<path d="M135.884 260.896C123.012 262.107 110.52 265.038 98.4886 269.782C99.284 270.815 100.08 271.849 100.875 272.886C102.759 270.332 104.083 267.518 104.975 264.477C105.445 262.874 103.893 261.466 102.347 261.85C94.1797 263.866 86.3669 267.266 79.3818 271.965C78.5735 272.509 77.572 273.044 76.8731 273.72C76.6574 273.868 76.4415 274.016 76.229 274.168C76.4576 274.367 76.4963 274.348 76.3481 274.107C75.865 273.572 75.9843 271.749 75.8973 271.047C75.601 268.722 74.8667 266.577 72.4063 265.853C71.7043 265.646 70.8638 265.862 70.3582 266.394C59.2734 278.097 48.121 289.732 36.8978 301.303C38.1344 301.815 39.3744 302.33 40.6143 302.842C40.202 298.456 39.5515 294.041 36.2828 290.808C35.3714 289.909 34.1122 290.061 33.1814 290.808C7.77223 311.18 -4.89373 342.312 -12.6389 373.058C-15.1089 382.861 -17.2118 392.757 -19.3083 402.647C-19.5402 403.742 -18.9928 404.962 -17.8302 405.252C21.0308 414.856 60.4263 402.769 96.4919 388.426C98.7301 387.537 98.6851 384.803 96.4919 383.898C93.513 382.667 90.5341 381.437 87.552 380.207C87.552 381.721 87.552 383.234 87.552 384.748C100.872 382.529 112.056 374.516 122.961 367.071C125.927 365.045 128.893 363.02 131.859 360.997C134.355 359.293 137.71 357.693 139.491 355.175C140.866 353.229 141.031 350.634 138.995 349.062C136.541 347.169 132.087 347.066 129.125 346.447C129.479 347.784 129.83 349.12 130.184 350.457C139.044 341.217 147.127 331.272 154.382 320.729C155.828 318.629 153.059 316.294 151.053 317.399C147.781 319.202 144.325 319.898 140.609 319.634C141.311 320.858 142.013 322.078 142.712 323.302C155.69 303.908 167.068 283.491 176.729 262.252C177.473 260.616 176.6 258.729 174.671 258.668C149.02 257.859 120.252 256.384 97.6127 270.645C95.7352 271.826 97.3648 274.448 99.3196 273.566C123.115 262.838 149.053 262.584 174.668 263.431C173.982 262.236 173.296 261.041 172.613 259.846C162.917 281.069 151.507 301.467 138.499 320.838C137.395 322.484 138.892 324.384 140.605 324.506C145.159 324.835 149.52 323.808 153.507 321.598C152.395 320.487 151.288 319.379 150.177 318.268C143.175 328.496 135.359 338.106 126.79 347.062C125.614 348.292 126.017 350.692 127.849 351.072C130.439 351.606 133.53 351.806 135.987 352.782C135.907 352.592 135.826 352.405 135.746 352.215C135.536 352.531 135.285 352.804 134.989 353.033C134.535 353.445 133.997 353.764 133.495 354.109C132.284 354.939 131.07 355.767 129.856 356.598C124.967 359.944 120.095 363.306 115.19 366.63C106.308 372.649 97.0459 378.404 86.2993 380.207C83.7262 380.639 84.4347 383.978 86.2993 384.748C89.2782 385.975 92.2603 387.202 95.2424 388.429C95.2424 386.918 95.2424 385.411 95.2424 383.901C60.2492 397.868 21.1274 410.473 -16.7063 401.172C-16.2136 402.042 -15.7208 402.908 -15.2281 403.777C-8.51989 371.985 -1.13552 338.944 18.6025 312.349C23.694 305.49 29.6293 299.277 36.2795 293.915C35.2458 293.915 34.212 293.915 33.1782 293.915C35.571 296.27 35.9511 299.661 36.257 302.849C36.4277 304.623 38.5628 305.85 39.9734 304.388C51.1612 292.782 62.2813 281.114 73.3306 269.379C72.6479 269.559 71.9651 269.74 71.2824 269.92C72.0456 270.142 72.094 274.712 72.4385 275.594C73.5754 278.499 76.4866 278.908 78.976 277.333C82.7278 274.96 86.2381 272.467 90.2765 270.554C94.505 268.555 98.9363 267.073 103.48 265.981C102.604 265.105 101.728 264.229 100.849 263.354C100.047 266.052 98.8236 268.461 97.2231 270.767C95.8705 272.712 98.405 274.387 100.112 273.656C111.628 268.732 123.846 265.334 136.232 263.511C137.701 263.283 137.372 260.758 135.884 260.896Z" fill="#516138"/>
<path d="M171.595 261.344C143.644 272.911 121.034 293.055 97.0736 310.958C84.0051 320.722 70.1154 329.333 57.1403 339.223C44.9413 348.521 33.4927 358.733 21.9313 368.803C8.90465 380.152 -4.25727 391.382 -18.8523 400.689C-21.3546 402.283 -19.0617 406.26 -16.5175 404.685C9.48103 388.599 30.649 366.41 54.3642 347.378C67.0817 337.169 80.891 328.506 94.0851 318.951C106.323 310.088 118.048 300.549 130.057 291.384C143.474 281.14 157.486 271.35 172.664 263.881C174.052 263.195 173.057 260.738 171.595 261.344Z" fill="#516138"/>
<path d="M140.349 260.358C129.371 269.172 119.243 278.766 109.469 288.891C104.654 293.876 99.8524 298.842 95.2923 304.062C90.8931 309.102 85.7437 314.583 82.9516 320.712C82.388 321.945 83.7663 323.072 84.8322 322.161C89.9849 317.755 94.0009 311.637 98.2615 306.378C102.622 300.993 107.024 295.583 111.726 290.491C121.107 280.328 131.168 270.702 141.435 261.44C142.179 260.77 141.1 259.755 140.349 260.358Z" fill="#516138"/>
<path d="M98.0656 291.283C94.6487 295.827 91.396 300.467 88.6394 305.446C87.992 306.615 89.744 307.642 90.4299 306.493C93.3347 301.63 96.0109 296.641 98.8095 291.714C99.0928 291.221 98.3908 290.851 98.0656 291.283Z" fill="#516138"/>
<path d="M90.7444 291.311C89.6817 293.475 88.5803 295.617 87.4402 297.742C86.3002 299.868 85.0346 301.932 84.0298 304.125C83.5435 305.184 84.9283 306.015 85.6014 305.043C86.9733 303.062 88.0392 300.876 89.1342 298.731C90.2324 296.583 91.2919 294.415 92.3128 292.229C92.8087 291.179 91.2661 290.251 90.7444 291.311Z" fill="#516138"/>
<path d="M100.321 265.409C79.424 282.277 69.1508 307.5 55.8247 330.04C53.9407 333.228 51.9923 336.381 49.9377 339.466C47.9443 342.461 45.2359 345.343 43.9059 348.699C43.4228 349.916 45.1038 351.172 46.1569 350.428C49.3097 348.2 51.4739 344.303 53.5962 341.144C55.96 337.627 58.1756 334.014 60.3043 330.352C64.581 322.993 68.5358 315.454 72.571 307.964C80.5512 293.14 89.1593 278.258 101.516 266.607C102.328 265.843 101.152 264.739 100.321 265.409Z" fill="#516138"/>
<path d="M72.3188 314.03C69.6394 317.904 66.889 321.736 64.2869 325.662C63.6654 326.599 65.1339 327.411 65.7748 326.532C68.5508 322.725 71.1884 318.809 73.8871 314.948C74.5634 313.988 72.9822 313.073 72.3188 314.03Z" fill="#516138"/>
<path d="M75.4964 315.905C74.3757 317.721 73.2581 319.538 72.1406 321.354C71.5802 322.262 71.0231 323.17 70.4628 324.079C69.896 325 69.2745 325.895 68.8719 326.9C68.5048 327.811 69.9089 328.597 70.524 327.863C71.2196 327.035 71.7123 326.059 72.2566 325.128C72.7944 324.207 73.3322 323.286 73.87 322.365C74.9457 320.523 76.0213 318.681 77.0937 316.839C77.6992 315.805 76.1211 314.891 75.4964 315.905Z" fill="#516138"/>
<path d="M101.396 274.049C99.6407 275.805 98.0305 277.698 96.562 279.701C95.8503 280.674 95.1611 281.672 94.5396 282.706C93.8858 283.798 93.3737 284.938 92.8939 286.116C92.4559 287.189 94.1306 287.788 94.7038 286.88C95.9533 284.899 97.1836 282.883 98.5522 280.983C99.9048 279.106 101.415 277.344 103.045 275.698C104.098 274.629 102.459 272.987 101.396 274.049Z" fill="#516138"/>
<path d="M106.91 273.088C105.59 274.617 104.305 276.176 103.058 277.767C102.434 278.565 101.815 279.371 101.207 280.182C100.588 281.007 99.9314 281.799 99.5191 282.746C99.1681 283.554 100.083 284.411 100.798 283.731C101.538 283.029 102.07 282.176 102.666 281.348C103.245 280.54 103.838 279.738 104.437 278.945C105.628 277.367 106.862 275.825 108.127 274.305C108.424 273.947 108.478 273.435 108.127 273.084C107.818 272.778 107.216 272.737 106.91 273.088Z" fill="#516138"/>
<path d="M114.504 270.741C112.875 272.236 111.322 273.81 109.857 275.466C109.145 276.271 108.453 277.095 107.783 277.936C107.081 278.815 106.25 279.697 105.87 280.767C105.622 281.469 106.524 281.787 106.991 281.417C107.815 280.763 108.376 279.762 109.026 278.934C109.693 278.09 110.382 277.263 111.091 276.451C112.508 274.831 114.012 273.289 115.586 271.823C116.311 271.154 115.229 270.078 114.504 270.741Z" fill="#516138"/>
<path d="M132.447 270.679C126.183 276.373 120.161 282.379 114.744 288.894C109.495 295.206 103.901 301.788 99.9076 308.986C99.518 309.688 100.497 310.529 101.061 309.875C103.782 306.728 106.168 303.305 108.751 300.043C111.343 296.771 114.016 293.567 116.767 290.427C122.277 284.137 127.829 277.893 133.687 271.919C134.482 271.11 133.278 269.922 132.447 270.679Z" fill="#516138"/>
<path d="M137.611 268.731C130.826 275.703 124.102 282.901 118.327 290.746C117.889 291.342 118.865 292.092 119.355 291.538C125.792 284.279 132.001 276.85 138.742 269.858C139.453 269.121 138.33 267.994 137.611 268.731Z" fill="#516138"/>
<path d="M147.334 263.974C140.05 271.629 132.816 279.526 126.723 288.173C126.021 289.171 127.638 290.437 128.427 289.486C135.161 281.403 141.566 273.072 148.577 265.214C149.321 264.377 148.117 263.15 147.334 263.974Z" fill="#516138"/>
<path d="M151.158 267.397C147.574 270.972 144.067 274.637 140.878 278.569C140.543 278.984 140.473 279.564 140.878 279.967C141.242 280.33 141.915 280.363 142.279 279.967C145.686 276.224 149.045 272.44 152.581 268.817C153.483 267.893 152.076 266.479 151.158 267.397Z" fill="#516138"/>
<path d="M68.8312 271.123C64.9441 280.15 59.5563 288.455 54.4584 296.825C49.1575 305.527 44.0789 314.364 39.1356 323.278C34.2727 332.047 29.6095 340.932 25.088 349.882C22.8273 354.358 20.602 358.854 18.4186 363.369C16.2834 367.781 13.794 372.235 12.3287 376.924C11.9615 378.096 13.6266 378.714 14.2546 377.735C17.0209 373.423 18.9628 368.48 21.2203 363.884C23.3587 359.53 25.5325 355.192 27.7449 350.874C32.3888 341.805 37.2033 332.823 42.1242 323.899C46.9677 315.117 51.9819 306.432 57.0766 297.794C62.0522 289.363 67.1115 281.058 70.4929 271.825C70.8439 270.868 69.2402 270.176 68.8312 271.123Z" fill="#516138"/>
<path d="M44.4622 322.215C41.464 327.452 38.5012 332.708 35.5771 337.983C32.6529 343.261 29.6192 348.501 27.1459 354.008C26.7241 354.945 27.9929 355.743 28.5501 354.829C31.6996 349.682 34.379 344.262 37.2355 338.952C40.0921 333.638 42.9904 328.344 45.9243 323.069C46.4524 322.116 45.0033 321.269 44.4622 322.215Z" fill="#516138"/>
<path d="M51.5685 314.405C49.4816 319.329 47.237 324.188 44.8217 328.961C42.4063 333.727 39.5015 338.275 37.2085 343.092C36.719 344.12 38.0652 344.896 38.7254 343.978C41.8589 339.611 44.2291 334.507 46.6122 329.699C48.9857 324.913 51.182 320.04 53.2302 315.107C53.6231 314.16 51.9678 313.455 51.5685 314.405Z" fill="#516138"/>
<path d="M58.5931 310.348C56.297 314.041 54.1071 317.803 52.0428 321.629C50.0203 325.377 47.8821 329.222 46.5295 333.274C46.1752 334.333 47.7596 334.961 48.3103 334.024C50.4648 330.346 52.1362 326.366 54.0943 322.579C56.0587 318.779 58.1423 315.04 60.3322 311.362C60.9956 310.248 59.2759 309.249 58.5931 310.348Z" fill="#516138"/>
<path d="M73.0584 286.919C71.767 289.585 70.3887 292.21 68.917 294.783C67.4452 297.359 65.8511 299.855 64.4051 302.448C63.8416 303.459 65.2617 304.222 65.9219 303.333C69.4354 298.599 72.0858 293.124 74.5172 287.772C74.9617 286.796 73.535 285.933 73.0584 286.919Z" fill="#516138"/>
<path d="M64.5121 291.747C63.3753 294.339 62.2417 296.935 61.1049 299.527C60.9214 299.946 60.9825 300.435 61.4076 300.683C61.7683 300.893 62.3801 300.799 62.5637 300.381C63.707 297.791 64.8535 295.205 65.9967 292.616C66.1835 292.191 66.1223 291.692 65.6875 291.437C65.3268 291.222 64.6989 291.315 64.5121 291.747Z" fill="#516138"/>
<path d="M50.2077 334.352C45.9631 340.043 41.9634 346.01 38.7429 352.345C38.1954 353.42 39.7476 354.344 40.3692 353.295C44.0018 347.16 47.7311 341.118 51.9982 335.399C52.7969 334.329 50.9967 333.293 50.2077 334.352Z" fill="#516138"/>
<path d="M36.1361 351.045C34.8576 353.193 33.6854 355.402 32.6291 357.673C32.1138 358.777 31.6275 359.898 31.167 361.025C30.6903 362.194 30.1332 363.376 29.956 364.629C29.853 365.366 30.8031 365.914 31.2411 365.17C31.8562 364.12 32.1975 362.941 32.6452 361.811C33.1025 360.658 33.5887 359.518 34.1072 358.391C35.1345 356.156 36.2746 353.976 37.5177 351.85C38.0362 350.961 36.661 350.163 36.1361 351.045Z" fill="#516138"/>
<path d="M31.0257 356.445C29.7537 358.352 28.5718 360.316 27.4897 362.335C26.4077 364.351 25.3159 366.4 24.7556 368.628C24.5495 369.446 25.6895 369.952 26.1275 369.208C27.2675 367.266 28.0887 365.163 29.1096 363.157C30.1337 361.147 31.2544 359.189 32.4621 357.286C33.0321 356.374 31.6118 355.563 31.0257 356.445Z" fill="#516138"/>
<path d="M31.4827 311.214C26.2141 319.001 21.4188 327.1 17.1711 335.489C15.0842 339.611 13.1166 343.801 11.3002 348.049C9.51934 352.21 7.55167 356.525 6.83352 361.011C6.70792 361.787 7.72877 362.348 8.17641 361.578C10.45 357.643 11.8445 353.205 13.5964 349.018C15.3999 344.713 17.3225 340.455 19.3868 336.265C23.48 327.966 28.1045 319.941 33.1928 312.212C33.8948 311.143 32.1912 310.167 31.4827 311.214Z" fill="#516138"/>
<path d="M15.1498 327.79C12.9406 332.248 10.8248 336.75 8.80879 341.297C6.84755 345.719 4.73813 350.24 3.55623 354.936C3.39843 355.567 4.31632 356.001 4.63514 355.39C6.83792 351.161 8.40949 346.582 10.229 342.176C12.1355 337.552 14.1483 332.975 16.2545 328.438C16.5926 327.7 15.5169 327.047 15.1498 327.79Z" fill="#516138"/>
<path d="M5.7056 338.051C4.33369 341.539 2.95859 345.027 1.58669 348.514C0.234106 351.954 -1.47597 355.435 -2.26175 359.052C-2.426 359.808 -1.38898 360.308 -0.979988 359.593C0.871761 356.379 1.95064 352.653 3.25813 349.191C4.6075 345.626 5.95358 342.057 7.30294 338.492C7.68617 337.488 6.08883 337.072 5.7056 338.051Z" fill="#516138"/>
<path d="M24.9881 333.438C21.304 339.164 18.0321 345.373 15.9323 351.865C15.6103 352.864 17.0981 353.218 17.4717 352.29C19.9933 346.024 22.7789 339.982 26.4213 334.279C26.9977 333.374 25.5646 332.543 24.9881 333.438Z" fill="#516138"/>
<path d="M27.1848 334.633C25.8612 336.369 24.6536 338.189 23.5747 340.089C22.4959 341.989 21.4911 343.94 20.9082 346.053C20.6892 346.836 21.8646 347.377 22.2511 346.62C23.2204 344.707 24.0321 342.723 25.0368 340.826C26.0416 338.929 27.1783 337.107 28.4279 335.361C28.9689 334.598 27.7323 333.915 27.1848 334.633Z" fill="#516138"/>
<path d="M2.3076 370.176C0.919597 373.371 -0.320235 376.62 -1.37976 379.937C-1.91113 381.606 -2.40067 383.287 -2.84187 384.977C-3.04797 385.77 -3.2476 386.559 -3.4054 387.364C-3.57287 388.207 -3.79832 389.016 -3.36678 389.802C-3.08338 390.32 -2.46828 390.281 -2.06251 389.969C-1.40876 389.463 -1.29921 388.575 -1.09632 387.815C-0.874109 386.968 -0.677691 386.114 -0.461922 385.267C-0.0593681 383.683 0.378623 382.111 0.858468 380.549C1.85036 377.316 3.01292 374.137 4.32686 371.02C4.79704 369.883 2.80355 369.03 2.3076 370.176Z" fill="#516138"/>
<path d="M7.45954 367.15C6.64155 369.456 5.82356 371.762 5.00235 374.068C4.1908 376.354 3.23431 378.657 2.70938 381.03C2.48073 382.064 4.02014 382.863 4.5193 381.793C5.56272 379.549 6.22933 377.114 6.98613 374.76C7.74937 372.39 8.51269 370.023 9.27271 367.653C9.6495 366.487 7.8621 366.02 7.45954 367.15Z" fill="#516138"/>
<path d="M149.088 320.804C134.377 327.075 118.787 331.657 103.203 335.168C95.5128 336.9 87.8257 338.675 80.0773 340.143C72.2066 341.634 64.1232 342.513 56.333 344.339C54.8355 344.69 55.1222 347.196 56.7034 347.067C64.806 346.407 72.9569 344.729 80.9823 343.421C88.9335 342.127 96.8944 340.855 104.736 338.987C120.529 335.225 135.762 330.208 150.167 322.653C151.416 321.996 150.318 320.279 149.088 320.804Z" fill="#516138"/>
<path d="M104.874 325.739C101.084 326.647 97.2643 327.423 93.4191 328.054C89.5803 328.682 85.719 329.078 81.9027 329.832C81.0236 330.006 81.2458 331.368 82.1121 331.368C86.0378 331.365 89.883 330.734 93.741 330.041C97.6442 329.339 101.518 328.482 105.36 327.494C106.494 327.201 106.014 325.465 104.874 325.739Z" fill="#516138"/>
<path d="M103.395 320.79C99.9326 321.531 96.4158 321.866 92.9249 322.41C92.5062 322.475 92.2486 322.977 92.3066 323.357C92.3742 323.795 92.7156 324.075 93.1536 324.104C94.0392 324.162 94.9215 324.226 95.8104 324.181C96.7314 324.136 97.646 324.036 98.5574 323.927C100.387 323.702 102.206 323.408 104.013 323.041C104.628 322.916 104.985 322.185 104.828 321.608C104.654 320.967 104.013 320.658 103.395 320.79Z" fill="#516138"/>
<path d="M122.635 316.498C118.3 317.584 113.891 318.324 109.437 318.695C108.523 318.772 108.516 320.212 109.437 320.131C114.014 319.725 118.548 318.959 122.999 317.819C123.855 317.603 123.491 316.283 122.635 316.498Z" fill="#516138"/>
<path d="M153.349 300.133C145.259 301.885 137.102 303.367 128.944 304.761C125.019 305.431 121.08 306.043 117.142 306.626C114.849 306.964 112.553 307.283 110.253 307.579C108.501 307.804 106.743 307.84 105.187 308.735C104.424 309.173 104.611 310.329 105.429 310.574C107.306 311.131 109.258 310.648 111.168 310.4C113.119 310.146 115.071 309.878 117.016 309.595C121.106 308.999 125.177 308.307 129.238 307.537C137.517 305.969 145.659 303.93 153.768 301.647C154.737 301.37 154.328 299.924 153.349 300.133Z" fill="#516138"/>
<path d="M141.681 295.664C138.157 296.463 134.625 297.216 131.134 298.144C130.428 298.33 130.734 299.345 131.43 299.222C134.992 298.591 138.518 297.78 142.054 297.02C142.933 296.83 142.563 295.464 141.681 295.664Z" fill="#516138"/>
<path d="M146.496 289.081C144.162 289.603 141.824 290.128 139.489 290.65C138.32 290.911 137.154 291.171 135.985 291.436C134.803 291.7 133.65 291.922 132.529 292.392C131.847 292.675 131.834 293.844 132.719 293.803C135.106 293.693 137.502 292.917 139.827 292.392C142.207 291.854 144.587 291.313 146.967 290.775C148.065 290.524 147.598 288.833 146.496 289.081Z" fill="#516138"/>
<path d="M157.69 280.783C154.643 281.63 151.593 282.477 148.547 283.327C145.539 284.164 142.515 285.005 139.671 286.302C138.754 286.721 139.475 287.903 140.299 287.79C143.375 287.365 146.373 286.438 149.339 285.539C152.311 284.641 155.284 283.742 158.256 282.844C159.57 282.448 159.02 280.412 157.69 280.783Z" fill="#516138"/>
<path d="M159.721 277.263C157.618 277.53 155.553 277.92 153.541 278.593C152.536 278.928 151.538 279.292 150.575 279.733C149.586 280.187 148.7 280.773 147.812 281.401C147.174 281.852 147.544 283.114 148.391 282.773C149.364 282.38 150.356 282.042 151.315 281.614C152.224 281.211 153.129 280.802 154.053 280.438C155.963 279.691 157.908 278.995 159.885 278.451C160.516 278.28 160.416 277.176 159.721 277.263Z" fill="#516138"/>
<path d="M137.894 309.408C135.849 310.406 133.73 311.23 131.549 311.878C129.36 312.528 127.112 312.963 124.899 313.536C123.904 313.794 124.113 315.33 125.141 315.324C129.942 315.301 134.789 313.491 139.053 311.391C140.38 310.738 139.217 308.76 137.894 309.408Z" fill="#516138"/>
<path d="M135.671 314.355C134.044 314.912 132.399 315.405 130.73 315.827C129.065 316.249 127.388 316.58 125.739 317.063C124.83 317.327 124.969 318.802 125.967 318.757C129.455 318.6 132.946 317.53 136.237 316.419C137.535 315.978 136.975 313.907 135.671 314.355Z" fill="#516138"/>
<path d="M130.213 320.226C129.333 320.429 128.454 320.632 127.575 320.838C126.693 321.041 125.833 321.292 124.963 321.549C124.615 321.652 124.397 322.02 124.496 322.374C124.603 322.76 124.96 322.892 125.321 322.841C126.222 322.712 127.115 322.583 128.007 322.4C128.892 322.219 129.778 322.039 130.663 321.855C131.098 321.768 131.388 321.231 131.253 320.815C131.108 320.364 130.673 320.12 130.213 320.226Z" fill="#516138"/>
<path d="M132.009 343.319C116.709 354.896 96.7484 356.317 78.524 359.54C68.8241 361.257 59.3399 363.917 49.8847 366.651C45.1055 368.032 40.3393 369.449 35.5666 370.85C33.0224 371.597 30.4751 372.345 27.9309 373.092C25.5929 373.778 23.0069 374.293 21.0006 375.729C19.6996 376.66 20.1375 378.679 21.8217 378.763C24.2983 378.885 26.7265 377.935 29.0742 377.243C31.6183 376.493 34.1625 375.742 36.7066 374.992C41.4761 373.584 46.252 372.19 51.0182 370.763C60.9372 367.794 70.8432 364.941 81.0198 362.996C99.3248 359.495 118.403 357.267 133.223 344.897C134.093 344.175 132.92 342.63 132.009 343.319Z" fill="#516138"/>
<path d="M82.282 349.238C77.2903 350.597 72.2568 351.802 67.1782 352.794C62.106 353.785 56.9468 354.365 51.894 355.444C50.6573 355.708 50.9149 357.756 52.1967 357.669C57.3429 357.328 62.4731 356.159 67.5002 355.051C72.6465 353.917 77.7573 352.629 82.8198 351.174C84.0597 350.819 83.538 348.897 82.282 349.238Z" fill="#516138"/>
<path d="M80.0517 354.255C77.456 354.739 74.8442 355.147 72.2195 355.453C70.9056 355.608 69.5884 355.737 68.2745 355.888C66.9573 356.043 65.5983 356.107 64.3166 356.474C62.9865 356.854 63.3987 358.58 64.6225 358.732C65.9332 358.896 67.2729 358.709 68.5804 358.58C69.9684 358.442 71.3436 358.226 72.7187 358.001C75.3788 357.56 78.0228 357.028 80.6474 356.41C82.058 356.078 81.4493 353.995 80.0517 354.255Z" fill="#516138"/>
<path d="M102.273 350.13C99.4743 351.273 96.5952 352.214 93.7193 353.135C92.4022 353.557 92.9432 355.476 94.2893 355.196C97.2554 354.577 100.115 353.618 102.93 352.5C103.545 352.256 103.976 351.679 103.79 350.99C103.625 350.404 102.891 349.876 102.273 350.13Z" fill="#516138"/>
<path d="M111.494 340.062C108.171 342.13 104.57 343.37 100.783 344.281C100.255 344.41 99.9394 345.006 100.081 345.518C100.239 346.094 100.78 346.3 101.318 346.22C105.282 345.634 109.118 343.891 112.444 341.689C113.449 341.022 112.534 339.415 111.494 340.062Z" fill="#516138"/>
<path d="M121.555 340.965C120.335 341.777 119.063 342.505 117.742 343.146C116.399 343.796 115.085 344.331 113.749 344.959C113.253 345.194 113.086 345.886 113.292 346.353C113.514 346.862 114.058 347.145 114.609 347C117.523 346.234 120.209 344.543 122.586 342.73C123.024 342.395 123.256 341.851 122.953 341.332C122.689 340.875 122.019 340.656 121.555 340.965Z" fill="#516138"/>
<path d="M122.661 346.002C121.35 346.514 120.04 347.03 118.729 347.542C118.085 347.793 117.441 348.044 116.8 348.299C116.426 348.443 116.027 348.566 115.673 348.749C115.357 348.91 115.061 349.113 114.755 349.294C113.795 349.86 114.433 351.332 115.505 351.075C115.847 350.991 116.21 350.936 116.545 350.823C116.922 350.695 117.296 350.508 117.663 350.353C118.301 350.086 118.935 349.815 119.573 349.548C120.867 349.001 122.165 348.453 123.46 347.906C123.93 347.706 124.068 347.03 123.885 346.611C123.695 346.17 123.15 345.812 122.661 346.002Z" fill="#516138"/>
<path d="M84.0663 369.756C71.6258 372.642 59.1338 375.244 46.6063 377.714C40.5036 378.915 34.3976 380.091 28.2788 381.202C21.8991 382.358 15.2071 383.06 9.04314 385.115C7.64225 385.582 7.7872 387.894 9.40707 387.81C15.542 387.501 21.6447 385.82 27.6283 384.519C34.0208 383.131 40.4102 381.733 46.7931 380.3C59.4011 377.473 71.9769 374.494 84.5559 371.54C85.7152 371.27 85.2257 369.486 84.0663 369.756Z" fill="#516138"/>
<path d="M46.7668 384.272C39.1794 385.757 31.5953 387.238 23.9919 388.636C20.2594 389.322 16.5269 390.008 12.7945 390.694C9.22944 391.351 5.05891 391.582 1.81915 393.292C0.479454 394.001 1.22989 395.83 2.53738 395.94C6.038 396.23 9.8799 394.829 13.271 394.069C17.1066 393.206 20.9389 392.346 24.7745 391.483C32.3039 389.792 39.8526 388.185 47.4013 386.578C48.9149 386.259 48.2707 383.979 46.7668 384.272Z" fill="#516138"/>
<path d="M55.2835 388.629C55.0291 388.752 54.7714 388.874 54.5138 388.993C54.3656 389.061 54.2175 389.125 54.0693 389.193C54.0082 389.219 53.7248 389.341 53.9406 389.251C53.3996 389.476 52.8488 389.689 52.2949 389.885C51.7603 390.075 51.2193 390.249 50.675 390.41C50.5366 390.452 50.4045 390.491 50.2693 390.542C50.1276 390.6 49.9859 390.661 49.8442 390.723C49.7218 390.774 49.6993 390.784 49.7766 390.752C49.8571 390.719 49.8313 390.729 49.7057 390.781C49.6316 390.813 49.5543 390.842 49.4803 390.874C49.2742 390.961 49.0745 391.048 48.8749 391.148C47.8508 391.666 48.3627 393.267 49.448 393.26C50.7298 393.254 51.931 392.851 53.1226 392.42C54.3174 391.985 55.4864 391.483 56.6264 390.922C57.2479 390.616 57.4701 389.682 57.0998 389.109C56.6811 388.462 55.9501 388.304 55.2835 388.629Z" fill="#516138"/>
<path d="M61.8223 390.096C61.0108 390.447 60.1991 390.795 59.3844 391.146C58.985 391.317 58.5857 391.49 58.1896 391.661C57.7677 391.842 57.391 392.041 57.0013 392.283C56.5601 392.556 56.3733 393.097 56.5762 393.577C56.7727 394.044 57.2976 394.321 57.8 394.176C58.0126 394.115 58.2315 394.064 58.4408 393.993C58.7113 393.903 58.9786 393.761 59.2363 393.642C59.6453 393.455 60.0543 393.271 60.4633 393.085C61.2813 392.711 62.0992 392.341 62.9172 391.967C63.4357 391.732 63.6032 390.94 63.3069 390.482C62.9559 389.945 62.3827 389.858 61.8223 390.096Z" fill="#516138"/>
<path d="M106.901 364.189C105.741 364.994 104.553 365.757 103.333 366.466C102.721 366.82 102.096 367.149 101.49 367.516C101.191 367.699 100.872 367.86 100.579 368.057C100.244 368.279 99.9607 368.585 99.6612 368.852C99.3166 369.161 99.2715 369.741 99.497 370.128C99.7417 370.546 100.225 370.707 100.685 370.611C101.094 370.527 101.5 370.462 101.883 370.289C102.205 370.144 102.521 369.983 102.84 369.825C103.474 369.509 104.07 369.129 104.669 368.752C105.864 367.996 107.026 367.19 108.157 366.337C108.675 365.947 108.997 365.245 108.604 364.633C108.26 364.105 107.471 363.79 106.901 364.189Z" fill="#516138"/>
<path d="M104.361 361.459C103.446 361.904 102.535 362.348 101.62 362.789C101.173 363.008 100.722 363.218 100.29 363.472C99.7911 363.765 99.3821 364.158 98.9538 364.545C98.6382 364.831 98.5641 365.404 98.796 365.762C99.0568 366.164 99.4722 366.3 99.9328 366.226C100.425 366.145 100.902 366.081 101.372 365.904C101.933 365.688 102.471 365.43 103.012 365.173C103.929 364.735 104.847 364.3 105.762 363.862C106.419 363.549 106.641 362.554 106.261 361.962C105.826 361.285 105.06 361.118 104.361 361.459Z" fill="#516138"/>
</g>
<defs>
<clipPath id="clip0_1_2157">
<rect width="310" height="549.172" fill="white" transform="translate(-67)"/>
</clipPath>
</defs>
</svg>
