<svg width="40" height="40" viewBox="0 0 40 40" fill="none" xmlns="http://www.w3.org/2000/svg">
<path d="M8.79998 19.6C8.13724 19.6 7.59998 20.1373 7.59998 20.8C7.59998 21.4627 8.13724 22 8.79998 22V19.6ZM31.2 22C31.8627 22 32.4 21.4627 32.4 20.8C32.4 20.1373 31.8627 19.6 31.2 19.6V22ZM12.5344 26C11.8716 26 11.3344 26.5373 11.3344 27.2C11.3344 27.8627 11.8716 28.4 12.5344 28.4V26ZM27.4672 28.4C28.1299 28.4 28.6672 27.8627 28.6672 27.2C28.6672 26.5373 28.1299 26 27.4672 26V28.4ZM12.5344 13.2C11.8716 13.2 11.3344 13.7373 11.3344 14.4C11.3344 15.0627 11.8716 15.6 12.5344 15.6V13.2ZM27.4672 15.6C28.1299 15.6 28.6672 15.0627 28.6672 14.4C28.6672 13.7373 28.1299 13.2 27.4672 13.2V15.6ZM8.79998 22H31.2V19.6H8.79998V22ZM12.5344 28.4H27.4672V26H12.5344V28.4ZM12.5344 15.6H27.4672V13.2H12.5344V15.6Z" fill="#F7F2DF"/>
</svg>
