<svg width="82" height="82" viewBox="0 0 82 82" fill="none" xmlns="http://www.w3.org/2000/svg">
<g clip-path="url(#clip0_1_3115)">
<path d="M82 0H0V82H82V0Z" fill="white"/>
<mask id="mask0_1_3115" style="mask-type:luminance" maskUnits="userSpaceOnUse" x="2" y="2" width="78" height="78">
<path d="M5.57603 34.4399H2.95203V37.0639H5.57603V34.4399Z" fill="white"/>
<path d="M5.57603 42.312H2.95203V44.936H5.57603V42.312Z" fill="white"/>
<path d="M5.57603 47.5601H2.95203V50.1841H5.57603V47.5601Z" fill="white"/>
<path d="M5.57603 50.1841H2.95203V52.8081H5.57603V50.1841Z" fill="white"/>
<path d="M5.57603 52.8081H2.95203V55.4321H5.57603V52.8081Z" fill="white"/>
<path d="M8.20005 31.8159H5.57605V34.4399H8.20005V31.8159Z" fill="white"/>
<path d="M8.20005 34.4399H5.57605V37.0639H8.20005V34.4399Z" fill="white"/>
<path d="M8.20005 42.312H5.57605V44.936H8.20005V42.312Z" fill="white"/>
<path d="M8.20005 44.936H5.57605V47.56H8.20005V44.936Z" fill="white"/>
<path d="M8.20005 47.5601H5.57605V50.1841H8.20005V47.5601Z" fill="white"/>
<path d="M8.20005 55.4321H5.57605V58.0561H8.20005V55.4321Z" fill="white"/>
<path d="M10.8241 23.9443H8.20007V26.5683H10.8241V23.9443Z" fill="white"/>
<path d="M10.8241 26.5684H8.20007V29.1924H10.8241V26.5684Z" fill="white"/>
<path d="M10.8241 29.1924H8.20007V31.8164H10.8241V29.1924Z" fill="white"/>
<path d="M10.8241 39.688H8.20007V42.312H10.8241V39.688Z" fill="white"/>
<path d="M10.8241 42.312H8.20007V44.936H10.8241V42.312Z" fill="white"/>
<path d="M10.8241 47.5601H8.20007V50.1841H10.8241V47.5601Z" fill="white"/>
<path d="M10.8241 52.8081H8.20007V55.4321H10.8241V52.8081Z" fill="white"/>
<path d="M10.8241 55.4321H8.20007V58.0561H10.8241V55.4321Z" fill="white"/>
<path d="M13.448 26.5684H10.824V29.1924H13.448V26.5684Z" fill="white"/>
<path d="M13.448 31.8159H10.824V34.4399H13.448V31.8159Z" fill="white"/>
<path d="M13.448 34.4399H10.824V37.0639H13.448V34.4399Z" fill="white"/>
<path d="M13.448 37.064H10.824V39.688H13.448V37.064Z" fill="white"/>
<path d="M13.448 39.688H10.824V42.312H13.448V39.688Z" fill="white"/>
<path d="M13.448 42.312H10.824V44.936H13.448V42.312Z" fill="white"/>
<path d="M13.448 44.936H10.824V47.56H13.448V44.936Z" fill="white"/>
<path d="M13.448 50.1841H10.824V52.8081H13.448V50.1841Z" fill="white"/>
<path d="M13.448 52.8081H10.824V55.4321H13.448V52.8081Z" fill="white"/>
<path d="M16.072 23.9443H13.448V26.5683H16.072V23.9443Z" fill="white"/>
<path d="M16.072 29.1924H13.448V31.8164H16.072V29.1924Z" fill="white"/>
<path d="M16.072 39.688H13.448V42.312H16.072V39.688Z" fill="white"/>
<path d="M16.072 50.1841H13.448V52.8081H16.072V50.1841Z" fill="white"/>
<path d="M16.072 52.8081H13.448V55.4321H16.072V52.8081Z" fill="white"/>
<path d="M18.696 23.9443H16.072V26.5683H18.696V23.9443Z" fill="white"/>
<path d="M18.696 29.1924H16.072V31.8164H18.696V29.1924Z" fill="white"/>
<path d="M18.696 37.064H16.072V39.688H18.696V37.064Z" fill="white"/>
<path d="M18.696 50.1841H16.072V52.8081H18.696V50.1841Z" fill="white"/>
<path d="M18.696 52.8081H16.072V55.4321H18.696V52.8081Z" fill="white"/>
<path d="M21.32 23.9443H18.696V26.5683H21.32V23.9443Z" fill="white"/>
<path d="M21.32 29.1924H18.696V31.8164H21.32V29.1924Z" fill="white"/>
<path d="M21.32 34.4399H18.696V37.0639H21.32V34.4399Z" fill="white"/>
<path d="M21.32 39.688H18.696V42.312H21.32V39.688Z" fill="white"/>
<path d="M21.32 44.936H18.696V47.56H21.32V44.936Z" fill="white"/>
<path d="M21.32 50.1841H18.696V52.8081H21.32V50.1841Z" fill="white"/>
<path d="M21.32 55.4321H18.696V58.0561H21.32V55.4321Z" fill="white"/>
<path d="M23.9441 29.1924H21.3201V31.8164H23.9441V29.1924Z" fill="white"/>
<path d="M23.9441 34.4399H21.3201V37.0639H23.9441V34.4399Z" fill="white"/>
<path d="M23.9441 37.064H21.3201V39.688H23.9441V37.064Z" fill="white"/>
<path d="M23.9441 39.688H21.3201V42.312H23.9441V39.688Z" fill="white"/>
<path d="M23.9441 47.5601H21.3201V50.1841H23.9441V47.5601Z" fill="white"/>
<path d="M23.9441 50.1841H21.3201V52.8081H23.9441V50.1841Z" fill="white"/>
<path d="M26.568 5.57617H23.944V8.20017H26.568V5.57617Z" fill="white"/>
<path d="M26.568 13.4482H23.944V16.0722H26.568V13.4482Z" fill="white"/>
<path d="M26.568 18.6963H23.944V21.3203H26.568V18.6963Z" fill="white"/>
<path d="M26.568 23.9443H23.944V26.5683H26.568V23.9443Z" fill="white"/>
<path d="M26.568 26.5684H23.944V29.1924H26.568V26.5684Z" fill="white"/>
<path d="M26.568 31.8159H23.944V34.4399H26.568V31.8159Z" fill="white"/>
<path d="M26.568 37.064H23.944V39.688H26.568V37.064Z" fill="white"/>
<path d="M26.568 50.1841H23.944V52.8081H26.568V50.1841Z" fill="white"/>
<path d="M26.568 52.8081H23.944V55.4321H26.568V52.8081Z" fill="white"/>
<path d="M26.568 58.0562H23.944V60.6802H26.568V58.0562Z" fill="white"/>
<path d="M26.568 63.3042H23.944V65.9282H26.568V63.3042Z" fill="white"/>
<path d="M26.568 65.9282H23.944V68.5522H26.568V65.9282Z" fill="white"/>
<path d="M26.568 71.1763H23.944V73.8003H26.568V71.1763Z" fill="white"/>
<path d="M29.192 2.95215H26.568V5.57615H29.192V2.95215Z" fill="white"/>
<path d="M29.192 8.2002H26.568V10.8242H29.192V8.2002Z" fill="white"/>
<path d="M29.192 10.8242H26.568V13.4482H29.192V10.8242Z" fill="white"/>
<path d="M29.192 16.0723H26.568V18.6963H29.192V16.0723Z" fill="white"/>
<path d="M29.192 21.3203H26.568V23.9443H29.192V21.3203Z" fill="white"/>
<path d="M29.192 23.9443H26.568V26.5683H29.192V23.9443Z" fill="white"/>
<path d="M29.192 26.5684H26.568V29.1924H29.192V26.5684Z" fill="white"/>
<path d="M29.192 29.1924H26.568V31.8164H29.192V29.1924Z" fill="white"/>
<path d="M29.192 31.8159H26.568V34.4399H29.192V31.8159Z" fill="white"/>
<path d="M29.192 34.4399H26.568V37.0639H29.192V34.4399Z" fill="white"/>
<path d="M29.192 37.064H26.568V39.688H29.192V37.064Z" fill="white"/>
<path d="M29.192 52.8081H26.568V55.4321H29.192V52.8081Z" fill="white"/>
<path d="M29.192 55.4321H26.568V58.0561H29.192V55.4321Z" fill="white"/>
<path d="M29.192 65.9282H26.568V68.5522H29.192V65.9282Z" fill="white"/>
<path d="M29.192 68.5522H26.568V71.1762H29.192V68.5522Z" fill="white"/>
<path d="M29.192 76.4243H26.568V79.0483H29.192V76.4243Z" fill="white"/>
<path d="M31.816 5.57617H29.192V8.20017H31.816V5.57617Z" fill="white"/>
<path d="M31.816 10.8242H29.192V13.4482H31.816V10.8242Z" fill="white"/>
<path d="M31.816 16.0723H29.192V18.6963H31.816V16.0723Z" fill="white"/>
<path d="M31.816 18.6963H29.192V21.3203H31.816V18.6963Z" fill="white"/>
<path d="M31.816 21.3203H29.192V23.9443H31.816V21.3203Z" fill="white"/>
<path d="M31.816 31.8159H29.192V34.4399H31.816V31.8159Z" fill="white"/>
<path d="M31.816 39.688H29.192V42.312H31.816V39.688Z" fill="white"/>
<path d="M31.816 42.312H29.192V44.936H31.816V42.312Z" fill="white"/>
<path d="M31.816 44.936H29.192V47.56H31.816V44.936Z" fill="white"/>
<path d="M31.816 47.5601H29.192V50.1841H31.816V47.5601Z" fill="white"/>
<path d="M31.816 50.1841H29.192V52.8081H31.816V50.1841Z" fill="white"/>
<path d="M31.816 55.4321H29.192V58.0561H31.816V55.4321Z" fill="white"/>
<path d="M31.816 58.0562H29.192V60.6802H31.816V58.0562Z" fill="white"/>
<path d="M31.816 68.5522H29.192V71.1762H31.816V68.5522Z" fill="white"/>
<path d="M31.816 76.4243H29.192V79.0483H31.816V76.4243Z" fill="white"/>
<path d="M34.44 5.57617H31.816V8.20017H34.44V5.57617Z" fill="white"/>
<path d="M34.44 8.2002H31.816V10.8242H34.44V8.2002Z" fill="white"/>
<path d="M34.44 13.4482H31.816V16.0722H34.44V13.4482Z" fill="white"/>
<path d="M34.44 16.0723H31.816V18.6963H34.44V16.0723Z" fill="white"/>
<path d="M34.44 31.8159H31.816V34.4399H34.44V31.8159Z" fill="white"/>
<path d="M34.44 39.688H31.816V42.312H34.44V39.688Z" fill="white"/>
<path d="M34.44 42.312H31.816V44.936H34.44V42.312Z" fill="white"/>
<path d="M34.44 47.5601H31.816V50.1841H34.44V47.5601Z" fill="white"/>
<path d="M34.44 50.1841H31.816V52.8081H34.44V50.1841Z" fill="white"/>
<path d="M34.44 60.6802H31.816V63.3042H34.44V60.6802Z" fill="white"/>
<path d="M34.44 63.3042H31.816V65.9282H34.44V63.3042Z" fill="white"/>
<path d="M34.44 65.9282H31.816V68.5522H34.44V65.9282Z" fill="white"/>
<path d="M34.44 68.5522H31.816V71.1762H34.44V68.5522Z" fill="white"/>
<path d="M34.44 73.8003H31.816V76.4243H34.44V73.8003Z" fill="white"/>
<path d="M37.0641 2.95215H34.4401V5.57615H37.0641V2.95215Z" fill="white"/>
<path d="M37.0641 8.2002H34.4401V10.8242H37.0641V8.2002Z" fill="white"/>
<path d="M37.0641 10.8242H34.4401V13.4482H37.0641V10.8242Z" fill="white"/>
<path d="M37.0641 18.6963H34.4401V21.3203H37.0641V18.6963Z" fill="white"/>
<path d="M37.0641 21.3203H34.4401V23.9443H37.0641V21.3203Z" fill="white"/>
<path d="M37.0641 23.9443H34.4401V26.5683H37.0641V23.9443Z" fill="white"/>
<path d="M37.0641 26.5684H34.4401V29.1924H37.0641V26.5684Z" fill="white"/>
<path d="M37.0641 31.8159H34.4401V34.4399H37.0641V31.8159Z" fill="white"/>
<path d="M37.0641 37.064H34.4401V39.688H37.0641V37.064Z" fill="white"/>
<path d="M37.0641 44.936H34.4401V47.56H37.0641V44.936Z" fill="white"/>
<path d="M37.0641 47.5601H34.4401V50.1841H37.0641V47.5601Z" fill="white"/>
<path d="M37.0641 52.8081H34.4401V55.4321H37.0641V52.8081Z" fill="white"/>
<path d="M37.0641 55.4321H34.4401V58.0561H37.0641V55.4321Z" fill="white"/>
<path d="M37.0641 63.3042H34.4401V65.9282H37.0641V63.3042Z" fill="white"/>
<path d="M39.688 2.95215H37.064V5.57615H39.688V2.95215Z" fill="white"/>
<path d="M39.688 5.57617H37.064V8.20017H39.688V5.57617Z" fill="white"/>
<path d="M39.688 8.2002H37.064V10.8242H39.688V8.2002Z" fill="white"/>
<path d="M39.688 16.0723H37.064V18.6963H39.688V16.0723Z" fill="white"/>
<path d="M39.688 26.5684H37.064V29.1924H39.688V26.5684Z" fill="white"/>
<path d="M39.688 37.064H37.064V39.688H39.688V37.064Z" fill="white"/>
<path d="M39.688 42.312H37.064V44.936H39.688V42.312Z" fill="white"/>
<path d="M39.688 47.5601H37.064V50.1841H39.688V47.5601Z" fill="white"/>
<path d="M39.688 50.1841H37.064V52.8081H39.688V50.1841Z" fill="white"/>
<path d="M39.688 60.6802H37.064V63.3042H39.688V60.6802Z" fill="white"/>
<path d="M39.688 63.3042H37.064V65.9282H39.688V63.3042Z" fill="white"/>
<path d="M39.688 65.9282H37.064V68.5522H39.688V65.9282Z" fill="white"/>
<path d="M39.688 68.5522H37.064V71.1762H39.688V68.5522Z" fill="white"/>
<path d="M39.688 76.4243H37.064V79.0483H39.688V76.4243Z" fill="white"/>
<path d="M42.312 8.2002H39.688V10.8242H42.312V8.2002Z" fill="white"/>
<path d="M42.312 13.4482H39.688V16.0722H42.312V13.4482Z" fill="white"/>
<path d="M42.312 16.0723H39.688V18.6963H42.312V16.0723Z" fill="white"/>
<path d="M42.312 18.6963H39.688V21.3203H42.312V18.6963Z" fill="white"/>
<path d="M42.312 26.5684H39.688V29.1924H42.312V26.5684Z" fill="white"/>
<path d="M42.312 29.1924H39.688V31.8164H42.312V29.1924Z" fill="white"/>
<path d="M42.312 39.688H39.688V42.312H42.312V39.688Z" fill="white"/>
<path d="M42.312 42.312H39.688V44.936H42.312V42.312Z" fill="white"/>
<path d="M42.312 44.936H39.688V47.56H42.312V44.936Z" fill="white"/>
<path d="M42.312 50.1841H39.688V52.8081H42.312V50.1841Z" fill="white"/>
<path d="M42.312 55.4321H39.688V58.0561H42.312V55.4321Z" fill="white"/>
<path d="M42.312 63.3042H39.688V65.9282H42.312V63.3042Z" fill="white"/>
<path d="M42.312 68.5522H39.688V71.1762H42.312V68.5522Z" fill="white"/>
<path d="M42.312 76.4243H39.688V79.0483H42.312V76.4243Z" fill="white"/>
<path d="M44.936 13.4482H42.312V16.0722H44.936V13.4482Z" fill="white"/>
<path d="M44.936 31.8159H42.312V34.4399H44.936V31.8159Z" fill="white"/>
<path d="M44.936 39.688H42.312V42.312H44.936V39.688Z" fill="white"/>
<path d="M44.936 42.312H42.312V44.936H44.936V42.312Z" fill="white"/>
<path d="M44.936 44.936H42.312V47.56H44.936V44.936Z" fill="white"/>
<path d="M44.936 55.4321H42.312V58.0561H44.936V55.4321Z" fill="white"/>
<path d="M44.936 58.0562H42.312V60.6802H44.936V58.0562Z" fill="white"/>
<path d="M44.936 65.9282H42.312V68.5522H44.936V65.9282Z" fill="white"/>
<path d="M44.936 68.5522H42.312V71.1762H44.936V68.5522Z" fill="white"/>
<path d="M47.56 8.2002H44.936V10.8242H47.56V8.2002Z" fill="white"/>
<path d="M47.56 18.6963H44.936V21.3203H47.56V18.6963Z" fill="white"/>
<path d="M47.56 21.3203H44.936V23.9443H47.56V21.3203Z" fill="white"/>
<path d="M47.56 29.1924H44.936V31.8164H47.56V29.1924Z" fill="white"/>
<path d="M47.56 34.4399H44.936V37.0639H47.56V34.4399Z" fill="white"/>
<path d="M47.56 39.688H44.936V42.312H47.56V39.688Z" fill="white"/>
<path d="M47.56 42.312H44.936V44.936H47.56V42.312Z" fill="white"/>
<path d="M47.56 44.936H44.936V47.56H47.56V44.936Z" fill="white"/>
<path d="M47.56 52.8081H44.936V55.4321H47.56V52.8081Z" fill="white"/>
<path d="M47.56 55.4321H44.936V58.0561H47.56V55.4321Z" fill="white"/>
<path d="M47.56 58.0562H44.936V60.6802H47.56V58.0562Z" fill="white"/>
<path d="M47.56 60.6802H44.936V63.3042H47.56V60.6802Z" fill="white"/>
<path d="M47.56 63.3042H44.936V65.9282H47.56V63.3042Z" fill="white"/>
<path d="M47.56 73.8003H44.936V76.4243H47.56V73.8003Z" fill="white"/>
<path d="M50.1841 2.95215H47.5601V5.57615H50.1841V2.95215Z" fill="white"/>
<path d="M50.1841 8.2002H47.5601V10.8242H50.1841V8.2002Z" fill="white"/>
<path d="M50.1841 10.8242H47.5601V13.4482H50.1841V10.8242Z" fill="white"/>
<path d="M50.1841 23.9443H47.5601V26.5683H50.1841V23.9443Z" fill="white"/>
<path d="M50.1841 31.8159H47.5601V34.4399H50.1841V31.8159Z" fill="white"/>
<path d="M50.1841 37.064H47.5601V39.688H50.1841V37.064Z" fill="white"/>
<path d="M50.1841 47.5601H47.5601V50.1841H50.1841V47.5601Z" fill="white"/>
<path d="M50.1841 50.1841H47.5601V52.8081H50.1841V50.1841Z" fill="white"/>
<path d="M50.1841 52.8081H47.5601V55.4321H50.1841V52.8081Z" fill="white"/>
<path d="M50.1841 63.3042H47.5601V65.9282H50.1841V63.3042Z" fill="white"/>
<path d="M50.1841 65.9282H47.5601V68.5522H50.1841V65.9282Z" fill="white"/>
<path d="M50.1841 68.5522H47.5601V71.1762H50.1841V68.5522Z" fill="white"/>
<path d="M50.1841 71.1763H47.5601V73.8003H50.1841V71.1763Z" fill="white"/>
<path d="M50.1841 76.4243H47.5601V79.0483H50.1841V76.4243Z" fill="white"/>
<path d="M52.8081 10.8242H50.1841V13.4482H52.8081V10.8242Z" fill="white"/>
<path d="M52.8081 13.4482H50.1841V16.0722H52.8081V13.4482Z" fill="white"/>
<path d="M52.8081 18.6963H50.1841V21.3203H52.8081V18.6963Z" fill="white"/>
<path d="M52.8081 37.064H50.1841V39.688H52.8081V37.064Z" fill="white"/>
<path d="M52.8081 39.688H50.1841V42.312H52.8081V39.688Z" fill="white"/>
<path d="M52.8081 42.312H50.1841V44.936H52.8081V42.312Z" fill="white"/>
<path d="M52.8081 47.5601H50.1841V50.1841H52.8081V47.5601Z" fill="white"/>
<path d="M52.8081 52.8081H50.1841V55.4321H52.8081V52.8081Z" fill="white"/>
<path d="M52.8081 63.3042H50.1841V65.9282H52.8081V63.3042Z" fill="white"/>
<path d="M52.8081 65.9282H50.1841V68.5522H52.8081V65.9282Z" fill="white"/>
<path d="M52.8081 68.5522H50.1841V71.1762H52.8081V68.5522Z" fill="white"/>
<path d="M52.8081 71.1763H50.1841V73.8003H52.8081V71.1763Z" fill="white"/>
<path d="M52.8081 76.4243H50.1841V79.0483H52.8081V76.4243Z" fill="white"/>
<path d="M55.432 10.8242H52.808V13.4482H55.432V10.8242Z" fill="white"/>
<path d="M55.432 16.0723H52.808V18.6963H55.432V16.0723Z" fill="white"/>
<path d="M55.432 23.9443H52.808V26.5683H55.432V23.9443Z" fill="white"/>
<path d="M55.432 31.8159H52.808V34.4399H55.432V31.8159Z" fill="white"/>
<path d="M55.432 42.312H52.808V44.936H55.432V42.312Z" fill="white"/>
<path d="M55.432 44.936H52.808V47.56H55.432V44.936Z" fill="white"/>
<path d="M55.432 47.5601H52.808V50.1841H55.432V47.5601Z" fill="white"/>
<path d="M55.432 50.1841H52.808V52.8081H55.432V50.1841Z" fill="white"/>
<path d="M55.432 52.8081H52.808V55.4321H55.432V52.8081Z" fill="white"/>
<path d="M55.432 55.4321H52.808V58.0561H55.432V55.4321Z" fill="white"/>
<path d="M55.432 63.3042H52.808V65.9282H55.432V63.3042Z" fill="white"/>
<path d="M55.432 68.5522H52.808V71.1762H55.432V68.5522Z" fill="white"/>
<path d="M55.432 73.8003H52.808V76.4243H55.432V73.8003Z" fill="white"/>
<path d="M58.056 2.95215H55.432V5.57615H58.056V2.95215Z" fill="white"/>
<path d="M58.056 5.57617H55.432V8.20017H58.056V5.57617Z" fill="white"/>
<path d="M58.056 10.8242H55.432V13.4482H58.056V10.8242Z" fill="white"/>
<path d="M58.056 18.6963H55.432V21.3203H58.056V18.6963Z" fill="white"/>
<path d="M58.056 23.9443H55.432V26.5683H58.056V23.9443Z" fill="white"/>
<path d="M58.056 37.064H55.432V39.688H58.056V37.064Z" fill="white"/>
<path d="M58.056 47.5601H55.432V50.1841H58.056V47.5601Z" fill="white"/>
<path d="M58.056 55.4321H55.432V58.0561H58.056V55.4321Z" fill="white"/>
<path d="M58.056 58.0562H55.432V60.6802H58.056V58.0562Z" fill="white"/>
<path d="M58.056 60.6802H55.432V63.3042H58.056V60.6802Z" fill="white"/>
<path d="M58.056 63.3042H55.432V65.9282H58.056V63.3042Z" fill="white"/>
<path d="M58.056 65.9282H55.432V68.5522H58.056V65.9282Z" fill="white"/>
<path d="M58.056 73.8003H55.432V76.4243H58.056V73.8003Z" fill="white"/>
<path d="M60.68 23.9443H58.056V26.5683H60.68V23.9443Z" fill="white"/>
<path d="M60.68 26.5684H58.056V29.1924H60.68V26.5684Z" fill="white"/>
<path d="M60.68 29.1924H58.056V31.8164H60.68V29.1924Z" fill="white"/>
<path d="M60.68 31.8159H58.056V34.4399H60.68V31.8159Z" fill="white"/>
<path d="M60.68 34.4399H58.056V37.0639H60.68V34.4399Z" fill="white"/>
<path d="M60.68 42.312H58.056V44.936H60.68V42.312Z" fill="white"/>
<path d="M60.68 44.936H58.056V47.56H60.68V44.936Z" fill="white"/>
<path d="M60.68 50.1841H58.056V52.8081H60.68V50.1841Z" fill="white"/>
<path d="M60.68 52.8081H58.056V55.4321H60.68V52.8081Z" fill="white"/>
<path d="M60.68 55.4321H58.056V58.0561H60.68V55.4321Z" fill="white"/>
<path d="M60.68 65.9282H58.056V68.5522H60.68V65.9282Z" fill="white"/>
<path d="M60.68 71.1763H58.056V73.8003H60.68V71.1763Z" fill="white"/>
<path d="M60.68 76.4243H58.056V79.0483H60.68V76.4243Z" fill="white"/>
<path d="M63.3041 26.5684H60.6801V29.1924H63.3041V26.5684Z" fill="white"/>
<path d="M63.3041 29.1924H60.6801V31.8164H63.3041V29.1924Z" fill="white"/>
<path d="M63.3041 31.8159H60.6801V34.4399H63.3041V31.8159Z" fill="white"/>
<path d="M63.3041 34.4399H60.6801V37.0639H63.3041V34.4399Z" fill="white"/>
<path d="M63.3041 42.312H60.6801V44.936H63.3041V42.312Z" fill="white"/>
<path d="M63.3041 44.936H60.6801V47.56H63.3041V44.936Z" fill="white"/>
<path d="M63.3041 47.5601H60.6801V50.1841H63.3041V47.5601Z" fill="white"/>
<path d="M63.3041 52.8081H60.6801V55.4321H63.3041V52.8081Z" fill="white"/>
<path d="M63.3041 55.4321H60.6801V58.0561H63.3041V55.4321Z" fill="white"/>
<path d="M63.3041 60.6802H60.6801V63.3042H63.3041V60.6802Z" fill="white"/>
<path d="M63.3041 65.9282H60.6801V68.5522H63.3041V65.9282Z" fill="white"/>
<path d="M63.3041 76.4243H60.6801V79.0483H63.3041V76.4243Z" fill="white"/>
<path d="M65.9281 29.1924H63.3041V31.8164H65.9281V29.1924Z" fill="white"/>
<path d="M65.9281 31.8159H63.3041V34.4399H65.9281V31.8159Z" fill="white"/>
<path d="M65.9281 34.4399H63.3041V37.0639H65.9281V34.4399Z" fill="white"/>
<path d="M65.9281 37.064H63.3041V39.688H65.9281V37.064Z" fill="white"/>
<path d="M65.9281 44.936H63.3041V47.56H65.9281V44.936Z" fill="white"/>
<path d="M65.9281 47.5601H63.3041V50.1841H65.9281V47.5601Z" fill="white"/>
<path d="M65.9281 50.1841H63.3041V52.8081H65.9281V50.1841Z" fill="white"/>
<path d="M65.9281 52.8081H63.3041V55.4321H65.9281V52.8081Z" fill="white"/>
<path d="M65.9281 55.4321H63.3041V58.0561H65.9281V55.4321Z" fill="white"/>
<path d="M65.9281 65.9282H63.3041V68.5522H65.9281V65.9282Z" fill="white"/>
<path d="M65.9281 76.4243H63.3041V79.0483H65.9281V76.4243Z" fill="white"/>
<path d="M68.552 23.9443H65.928V26.5683H68.552V23.9443Z" fill="white"/>
<path d="M68.552 26.5684H65.928V29.1924H68.552V26.5684Z" fill="white"/>
<path d="M68.552 34.4399H65.928V37.0639H68.552V34.4399Z" fill="white"/>
<path d="M68.552 37.064H65.928V39.688H68.552V37.064Z" fill="white"/>
<path d="M68.552 50.1841H65.928V52.8081H68.552V50.1841Z" fill="white"/>
<path d="M68.552 52.8081H65.928V55.4321H68.552V52.8081Z" fill="white"/>
<path d="M68.552 55.4321H65.928V58.0561H68.552V55.4321Z" fill="white"/>
<path d="M68.552 58.0562H65.928V60.6802H68.552V58.0562Z" fill="white"/>
<path d="M68.552 60.6802H65.928V63.3042H68.552V60.6802Z" fill="white"/>
<path d="M68.552 63.3042H65.928V65.9282H68.552V63.3042Z" fill="white"/>
<path d="M68.552 65.9282H65.928V68.5522H68.552V65.9282Z" fill="white"/>
<path d="M68.552 68.5522H65.928V71.1762H68.552V68.5522Z" fill="white"/>
<path d="M68.552 73.8003H65.928V76.4243H68.552V73.8003Z" fill="white"/>
<path d="M71.176 29.1924H68.552V31.8164H71.176V29.1924Z" fill="white"/>
<path d="M71.176 34.4399H68.552V37.0639H71.176V34.4399Z" fill="white"/>
<path d="M71.176 37.064H68.552V39.688H71.176V37.064Z" fill="white"/>
<path d="M71.176 44.936H68.552V47.56H71.176V44.936Z" fill="white"/>
<path d="M71.176 47.5601H68.552V50.1841H71.176V47.5601Z" fill="white"/>
<path d="M71.176 52.8081H68.552V55.4321H71.176V52.8081Z" fill="white"/>
<path d="M71.176 58.0562H68.552V60.6802H71.176V58.0562Z" fill="white"/>
<path d="M71.176 71.1763H68.552V73.8003H71.176V71.1763Z" fill="white"/>
<path d="M71.176 73.8003H68.552V76.4243H71.176V73.8003Z" fill="white"/>
<path d="M73.8 26.5684H71.176V29.1924H73.8V26.5684Z" fill="white"/>
<path d="M73.8 29.1924H71.176V31.8164H73.8V29.1924Z" fill="white"/>
<path d="M73.8 31.8159H71.176V34.4399H73.8V31.8159Z" fill="white"/>
<path d="M73.8 34.4399H71.176V37.0639H73.8V34.4399Z" fill="white"/>
<path d="M73.8 39.688H71.176V42.312H73.8V39.688Z" fill="white"/>
<path d="M73.8 44.936H71.176V47.56H73.8V44.936Z" fill="white"/>
<path d="M73.8 47.5601H71.176V50.1841H73.8V47.5601Z" fill="white"/>
<path d="M73.8 50.1841H71.176V52.8081H73.8V50.1841Z" fill="white"/>
<path d="M73.8 58.0562H71.176V60.6802H73.8V58.0562Z" fill="white"/>
<path d="M73.8 60.6802H71.176V63.3042H73.8V60.6802Z" fill="white"/>
<path d="M73.8 73.8003H71.176V76.4243H73.8V73.8003Z" fill="white"/>
<path d="M73.8 76.4243H71.176V79.0483H73.8V76.4243Z" fill="white"/>
<path d="M76.424 23.9443H73.8V26.5683H76.424V23.9443Z" fill="white"/>
<path d="M76.424 31.8159H73.8V34.4399H76.424V31.8159Z" fill="white"/>
<path d="M76.424 34.4399H73.8V37.0639H76.424V34.4399Z" fill="white"/>
<path d="M76.424 47.5601H73.8V50.1841H76.424V47.5601Z" fill="white"/>
<path d="M76.424 52.8081H73.8V55.4321H76.424V52.8081Z" fill="white"/>
<path d="M76.424 58.0562H73.8V60.6802H76.424V58.0562Z" fill="white"/>
<path d="M76.424 60.6802H73.8V63.3042H76.424V60.6802Z" fill="white"/>
<path d="M76.424 63.3042H73.8V65.9282H76.424V63.3042Z" fill="white"/>
<path d="M76.424 65.9282H73.8V68.5522H76.424V65.9282Z" fill="white"/>
<path d="M76.424 68.5522H73.8V71.1762H76.424V68.5522Z" fill="white"/>
<path d="M76.424 73.8003H73.8V76.4243H76.424V73.8003Z" fill="white"/>
<path d="M76.424 76.4243H73.8V79.0483H76.424V76.4243Z" fill="white"/>
<path d="M79.0481 29.1924H76.4241V31.8164H79.0481V29.1924Z" fill="white"/>
<path d="M79.0481 37.064H76.4241V39.688H79.0481V37.064Z" fill="white"/>
<path d="M79.0481 42.312H76.4241V44.936H79.0481V42.312Z" fill="white"/>
<path d="M79.0481 44.936H76.4241V47.56H79.0481V44.936Z" fill="white"/>
<path d="M79.0481 52.8081H76.4241V55.4321H79.0481V52.8081Z" fill="white"/>
<path d="M79.0481 55.4321H76.4241V58.0561H79.0481V55.4321Z" fill="white"/>
<path d="M79.0481 58.0562H76.4241V60.6802H79.0481V58.0562Z" fill="white"/>
<path d="M79.0481 63.3042H76.4241V65.9282H79.0481V63.3042Z" fill="white"/>
<path d="M79.0481 73.8003H76.4241V76.4243H79.0481V73.8003Z" fill="white"/>
</mask>
<g mask="url(#mask0_1_3115)">
<path d="M82 0H0V82H82V0Z" fill="#516138"/>
</g>
<mask id="mask1_1_3115" style="mask-type:luminance" maskUnits="userSpaceOnUse" x="2" y="2" width="20" height="20">
<path fill-rule="evenodd" clip-rule="evenodd" d="M2.95203 9.51215V14.7601C2.95203 16.5 3.64317 18.1685 4.87341 19.3988C5.48256 20.0079 6.20573 20.4911 7.00162 20.8208C7.79752 21.1505 8.65056 21.3201 9.51203 21.3201H14.76C16.4998 21.3201 18.1684 20.629 19.3986 19.3988C20.6289 18.1685 21.32 16.5 21.32 14.7601V9.51215C21.32 8.65068 21.1503 7.79764 20.8207 7.00175C20.491 6.20585 20.0078 5.48268 19.3986 4.87353C18.7895 4.26438 18.0663 3.78117 17.2704 3.4515C16.4745 3.12183 15.6215 2.95215 14.76 2.95215H9.51203C8.65056 2.95215 7.79752 3.12183 7.00162 3.4515C6.20573 3.78117 5.48256 4.26438 4.87341 4.87353C3.64317 6.10377 2.95203 7.77233 2.95203 9.51215ZM9.51203 5.57615H14.76C15.8039 5.57615 16.8051 5.99083 17.5432 6.72898C18.2813 7.46712 18.696 8.46826 18.696 9.51215V14.7601C18.696 15.804 18.2813 16.8052 17.5432 17.5433C16.8051 18.2815 15.8039 18.6961 14.76 18.6961H9.51203C8.46813 18.6961 7.467 18.2815 6.72885 17.5433C5.99071 16.8052 5.57603 15.804 5.57603 14.7601V9.51215C5.57603 8.46826 5.99071 7.46712 6.72885 6.72898C7.467 5.99083 8.46813 5.57615 9.51203 5.57615Z" fill="white"/>
</mask>
<g mask="url(#mask1_1_3115)">
<path d="M21.32 2.95215H2.95203V21.3201H21.32V2.95215Z" fill="#516138"/>
</g>
<mask id="mask2_1_3115" style="mask-type:luminance" maskUnits="userSpaceOnUse" x="8" y="8" width="9" height="9">
<path d="M12.136 16.0722C14.3097 16.0722 16.072 14.31 16.072 12.1362C16.072 9.9624 14.3097 8.2002 12.136 8.2002C9.96216 8.2002 8.19995 9.9624 8.19995 12.1362C8.19995 14.31 9.96216 16.0722 12.136 16.0722Z" fill="white"/>
</mask>
<g mask="url(#mask2_1_3115)">
<path d="M16.072 8.2002H8.19995V16.0722H16.072V8.2002Z" fill="#516138"/>
</g>
<mask id="mask3_1_3115" style="mask-type:luminance" maskUnits="userSpaceOnUse" x="60" y="2" width="20" height="20">
<path fill-rule="evenodd" clip-rule="evenodd" d="M72.4881 2.95215L67.2401 2.95215C65.5003 2.95215 63.8317 3.64329 62.6015 4.87353C61.3712 6.10377 60.6801 7.77233 60.6801 9.51215V14.7601C60.6801 16.5 61.3712 18.1685 62.6015 19.3988C63.8317 20.629 65.5003 21.3201 67.2401 21.3201H72.4881C73.3496 21.3201 74.2026 21.1505 74.9985 20.8208C75.7944 20.4911 76.5176 20.0079 77.1267 19.3988C77.7359 18.7896 78.2191 18.0664 78.5487 17.2706C78.8784 16.4747 79.0481 15.6216 79.0481 14.7601V9.51215C79.0481 7.77233 78.357 6.10377 77.1267 4.87353C75.8965 3.64329 74.2279 2.95215 72.4881 2.95215ZM76.4241 9.51215V14.7601C76.4241 15.804 76.0094 16.8052 75.2713 17.5433C74.5331 18.2815 73.532 18.6961 72.4881 18.6961H67.2401C66.1962 18.6961 65.1951 18.2815 64.4569 17.5433C63.7188 16.8052 63.3041 15.804 63.3041 14.7601V9.51215C63.3041 8.46826 63.7188 7.46712 64.4569 6.72898C65.1951 5.99083 66.1962 5.57615 67.2401 5.57615L72.4881 5.57615C73.532 5.57615 74.5331 5.99083 75.2713 6.72898C76.0094 7.46712 76.4241 8.46826 76.4241 9.51215Z" fill="white"/>
</mask>
<g mask="url(#mask3_1_3115)">
<path d="M79.0481 2.95215H60.6801V21.3201H79.0481V2.95215Z" fill="#516138"/>
</g>
<mask id="mask4_1_3115" style="mask-type:luminance" maskUnits="userSpaceOnUse" x="65" y="8" width="9" height="9">
<path d="M65.9279 12.1362C65.9279 14.31 67.6901 16.0722 69.8639 16.0722C72.0377 16.0722 73.7999 14.31 73.7999 12.1362C73.7999 9.9624 72.0377 8.2002 69.8639 8.2002C67.6901 8.2002 65.9279 9.9624 65.9279 12.1362Z" fill="white"/>
</mask>
<g mask="url(#mask4_1_3115)">
<path d="M73.8 8.2002H65.928V16.0722H73.8V8.2002Z" fill="#516138"/>
</g>
<mask id="mask5_1_3115" style="mask-type:luminance" maskUnits="userSpaceOnUse" x="2" y="60" width="20" height="20">
<path fill-rule="evenodd" clip-rule="evenodd" d="M9.51203 79.0483H14.76C16.4998 79.0483 18.1684 78.3572 19.3986 77.127C20.0078 76.5178 20.491 75.7946 20.8207 74.9987C21.1503 74.2028 21.32 73.3498 21.32 72.4883V67.2403C21.32 65.5005 20.6289 63.832 19.3986 62.6017C18.1684 61.3715 16.4998 60.6803 14.76 60.6803H9.51203C7.77221 60.6803 6.10364 61.3715 4.87341 62.6017C3.64317 63.832 2.95203 65.5005 2.95203 67.2403L2.95203 72.4883C2.95203 73.3498 3.12171 74.2028 3.45138 74.9987C3.78105 75.7946 4.26425 76.5178 4.87341 77.127C6.10364 78.3572 7.77221 79.0483 9.51203 79.0483ZM5.57603 72.4883L5.57603 67.2403C5.57603 66.1964 5.99071 65.1953 6.72886 64.4572C7.467 63.719 8.46813 63.3043 9.51203 63.3043H14.76C15.8039 63.3043 16.8051 63.719 17.5432 64.4572C18.2813 65.1953 18.696 66.1964 18.696 67.2403V72.4883C18.696 73.5322 18.2813 74.5334 17.5432 75.2715C16.8051 76.0097 15.8039 76.4243 14.76 76.4243H9.51203C8.46813 76.4243 7.467 76.0097 6.72886 75.2715C5.99071 74.5334 5.57603 73.5322 5.57603 72.4883Z" fill="white"/>
</mask>
<g mask="url(#mask5_1_3115)">
<path d="M21.32 60.6802H2.95203V79.0482H21.32V60.6802Z" fill="#516138"/>
</g>
<mask id="mask6_1_3115" style="mask-type:luminance" maskUnits="userSpaceOnUse" x="8" y="65" width="9" height="9">
<path d="M16.072 69.8643C16.072 67.6905 14.3097 65.9283 12.136 65.9283C9.96216 65.9283 8.19995 67.6905 8.19995 69.8643C8.19995 72.0381 9.96216 73.8003 12.136 73.8003C14.3097 73.8003 16.072 72.0381 16.072 69.8643Z" fill="white"/>
</mask>
<g mask="url(#mask6_1_3115)">
<path d="M16.072 65.9282H8.19995V73.8002H16.072V65.9282Z" fill="#516138"/>
</g>
</g>
<defs>
<clipPath id="clip0_1_3115">
<rect width="82" height="82" fill="white"/>
</clipPath>
</defs>
</svg>
