<svg width="277" height="159" viewBox="0 0 277 159" fill="none" xmlns="http://www.w3.org/2000/svg">
<g clip-path="url(#clip0_1_2666)">
<path d="M235.868 43.8086H40.6985V64.6052H235.868V43.8086Z" fill="#F7F2DF" stroke="#7D8E61" stroke-width="3.14618" stroke-miterlimit="10"/>
<path d="M130.372 59.1758H146.628C164.8 59.1758 179.529 73.8171 179.529 91.8303V103.077H97.4709V91.8303C97.4709 73.7945 112.223 59.1758 130.372 59.1758Z" fill="#F7F2DF" stroke="#7D8E61" stroke-width="3.14618" stroke-miterlimit="10"/>
<path d="M52.0756 59.1758H224.468C248.887 59.1758 268.723 78.8636 268.723 103.1H7.84314C7.84314 78.8636 27.6793 59.1758 52.0984 59.1758H52.0756Z" fill="#F7F2DF" stroke="#7D8E61" stroke-width="3.14618" stroke-miterlimit="10"/>
<path d="M47.5387 34.7603H229.006C234.045 34.7603 238.126 38.811 238.126 43.8121H38.4186C38.4186 38.811 42.4998 34.7603 47.5387 34.7603Z" fill="#F7F2DF" stroke="#7D8E61" stroke-width="3.14618" stroke-miterlimit="10"/>
<path d="M138.488 49.3101C156.66 49.3101 171.389 63.9514 171.389 81.9646V93.2115H105.565V81.9646C105.565 63.9288 120.317 49.3101 138.466 49.3101H138.488Z" fill="#F7F2DF" stroke="#7D8E61" stroke-width="3.14618" stroke-miterlimit="10"/>
<path d="M131.307 10.9521H145.716C152.078 10.9521 157.23 16.0664 157.23 22.3801H119.792C119.792 16.0664 124.945 10.9521 131.307 10.9521Z" fill="#F7F2DF" stroke="#7D8E61" stroke-width="3.14618" stroke-miterlimit="10"/>
<path d="M115.779 93.2334H105.588V152.84H115.779V93.2334Z" fill="#F7F2DF" stroke="#7D8E61" stroke-width="3.14618" stroke-miterlimit="10"/>
<path d="M21.9109 103.076H11.7192V152.839H21.9109V103.076Z" fill="#F7F2DF" stroke="#7D8E61" stroke-width="3.14618" stroke-miterlimit="10"/>
<path d="M21.9109 143.334H11.7192V152.839H21.9109V143.334Z" fill="#F7F2DF" stroke="#7D8E61" stroke-width="3.14618" stroke-miterlimit="10"/>
<path d="M265.281 103.076H255.089V152.839H265.281V103.076Z" fill="#F7F2DF" stroke="#7D8E61" stroke-width="3.14618" stroke-miterlimit="10"/>
<path d="M105.588 103.076H97.4709V152.839H105.588V103.076Z" fill="#F7F2DF" stroke="#7D8E61" stroke-width="3.14618" stroke-miterlimit="10"/>
<path d="M179.529 103.076H171.412V152.839H179.529V103.076Z" fill="#F7F2DF" stroke="#7D8E61" stroke-width="3.14618" stroke-miterlimit="10"/>
<path d="M171.412 93.2334H161.22V152.84H171.412V93.2334Z" fill="#F7F2DF" stroke="#7D8E61" stroke-width="3.14618" stroke-miterlimit="10"/>
<path d="M161.221 85.1313H115.78V152.839H161.221V85.1313Z" fill="#F7F2DF" stroke="#7D8E61" stroke-width="3.14618" stroke-miterlimit="10"/>
<path d="M143.573 123.375H133.45V152.861H143.573V123.375Z" fill="#F7F2DF" stroke="#7D8E61" stroke-width="3.14618" stroke-miterlimit="10"/>
<path d="M133.353 123.2H115.753V152.984H133.353V123.2Z" fill="#7D8E61" stroke="#7D8E61" stroke-width="3.14618" stroke-miterlimit="10"/>
<path d="M161.107 123.2H143.507V152.984H161.107V123.2Z" fill="#7D8E61" stroke="#7D8E61" stroke-width="3.14618" stroke-miterlimit="10"/>
<path d="M154.061 22.3813H122.961V34.7597H154.061V22.3813Z" fill="#F7F2DF" stroke="#7D8E61" stroke-width="3.14618" stroke-miterlimit="10"/>
<path d="M144.645 6.44775H132.356V10.9284H144.645V6.44775Z" fill="#F7F2DF" stroke="#7D8E61" stroke-width="3.14618" stroke-miterlimit="10"/>
<path d="M135.41 1.13232H141.566C144.53 1.13232 146.925 3.50843 146.925 6.45028H130.03C130.03 3.50843 132.424 1.13232 135.388 1.13232H135.41Z" fill="#F7F2DF" stroke="#7D8E61" stroke-width="3.14618" stroke-miterlimit="10"/>
<path d="M97.471 103.076H21.911V152.839H97.471V103.076Z" fill="#F7F2DF" stroke="#7D8E61" stroke-width="3.14618" stroke-miterlimit="10"/>
<path d="M97.471 103.076H21.911V111.653H97.471V103.076Z" fill="#F7F2DF" stroke="#7D8E61" stroke-width="3.14618" stroke-miterlimit="10"/>
<path d="M59.2811 103.076H35.8881V111.653H59.2811V103.076Z" fill="#F7F2DF" stroke="#7D8E61" stroke-width="3.14618" stroke-miterlimit="10"/>
<path d="M82.6736 103.076H59.2805V111.653H82.6736V103.076Z" fill="#F7F2DF" stroke="#7D8E61" stroke-width="3.14618" stroke-miterlimit="10"/>
<path d="M115.779 87.5303H102.874V93.5045H115.779V87.5303Z" fill="#F7F2DF" stroke="#7D8E61" stroke-width="3.14618" stroke-miterlimit="10"/>
<path d="M105.588 97.1035H92.6832V103.078H105.588V97.1035Z" fill="#F7F2DF" stroke="#7D8E61" stroke-width="3.14618" stroke-miterlimit="10"/>
<path d="M174.125 87.5303H161.22V93.5045H174.125V87.5303Z" fill="#F7F2DF" stroke="#7D8E61" stroke-width="3.14618" stroke-miterlimit="10"/>
<path d="M184.317 97.1035H171.412V103.078H184.317V97.1035Z" fill="#F7F2DF" stroke="#7D8E61" stroke-width="3.14618" stroke-miterlimit="10"/>
<path d="M275.86 152.839H1.14001V158.101H275.86V152.839Z" fill="#F7F2DF" stroke="#7D8E61" stroke-width="3.14618" stroke-miterlimit="10"/>
<path d="M35.8878 123.037C39.0343 123.037 41.5879 125.572 41.5879 128.695V152.863H30.2106V128.695C30.2106 125.572 32.7642 123.037 35.9106 123.037H35.8878Z" fill="#7D8E61" stroke="#7D8E61" stroke-width="3.14618" stroke-miterlimit="10"/>
<path d="M59.2809 123.037C62.4273 123.037 64.981 125.572 64.981 128.695V152.863H53.6036V128.695C53.6036 125.572 56.1573 123.037 59.3037 123.037H59.2809Z" fill="#7D8E61" stroke="#7D8E61" stroke-width="3.14618" stroke-miterlimit="10"/>
<path d="M82.6733 123.037C85.8198 123.037 88.3734 125.572 88.3734 128.695V152.863H76.9961V128.695C76.9961 125.572 79.5497 123.037 82.6962 123.037H82.6733Z" fill="#7D8E61" stroke="#7D8E61" stroke-width="3.14618" stroke-miterlimit="10"/>
<path d="M255.089 103.076H179.529V152.839H255.089V103.076Z" fill="#F7F2DF" stroke="#7D8E61" stroke-width="3.14618" stroke-miterlimit="10"/>
<path d="M255.089 103.076H179.529V111.653H255.089V103.076Z" fill="#F7F2DF" stroke="#7D8E61" stroke-width="3.14618" stroke-miterlimit="10"/>
<path d="M193.506 123.037C196.652 123.037 199.206 125.572 199.206 128.695V152.863H187.829V128.695C187.829 125.572 190.382 123.037 193.529 123.037H193.506Z" fill="#7D8E61" stroke="#7D8E61" stroke-width="3.14618" stroke-miterlimit="10"/>
<path d="M216.898 123.037C220.045 123.037 222.598 125.572 222.598 128.695V152.863H211.221V128.695C211.221 125.572 213.775 123.037 216.921 123.037H216.898Z" fill="#7D8E61" stroke="#7D8E61" stroke-width="3.14618" stroke-miterlimit="10"/>
<path d="M240.314 123.037C243.461 123.037 246.014 125.572 246.014 128.695V152.863H234.637V128.695C234.637 125.572 237.191 123.037 240.337 123.037H240.314Z" fill="#7D8E61" stroke="#7D8E61" stroke-width="3.14618" stroke-miterlimit="10"/>
<path d="M265.281 143.334H255.089V152.839H265.281V143.334Z" fill="#F7F2DF" stroke="#7D8E61" stroke-width="3.14618" stroke-miterlimit="10"/>
<path d="M241.112 111.676H255.089V103.1H241.112V111.676Z" fill="#F7F2DF" stroke="#7D8E61" stroke-width="3.14618" stroke-miterlimit="10"/>
<path d="M217.72 111.676H241.113V103.1H217.72V111.676Z" fill="#F7F2DF" stroke="#7D8E61" stroke-width="3.14618" stroke-miterlimit="10"/>
<path d="M194.304 111.676H217.697V103.1H194.304V111.676Z" fill="#F7F2DF" stroke="#7D8E61" stroke-width="3.14618" stroke-miterlimit="10"/>
<path d="M119.45 111.676H157.093C161.927 111.676 165.848 115.569 165.848 120.366V123.353H110.672V120.366C110.672 115.569 114.594 111.676 119.427 111.676H119.45Z" fill="#F7F2DF" stroke="#7D8E61" stroke-width="3.14618" stroke-miterlimit="10"/>
</g>
<defs>
<clipPath id="clip0_1_2666">
<rect width="277" height="158.399" fill="white"/>
</clipPath>
</defs>
</svg>
